<?xml version="1.0" encoding="UTF-8" standalone="no"?>
<!-- Created with Inkscape (http://www.inkscape.org/) -->

<svg
   xmlns:dc="http://purl.org/dc/elements/1.1/"
   xmlns:cc="http://creativecommons.org/ns#"
   xmlns:rdf="http://www.w3.org/1999/02/22-rdf-syntax-ns#"
   xmlns:svg="http://www.w3.org/2000/svg"
   xmlns="http://www.w3.org/2000/svg"
   xmlns:xlink="http://www.w3.org/1999/xlink"
   xmlns:sodipodi="http://sodipodi.sourceforge.net/DTD/sodipodi-0.dtd"
   xmlns:inkscape="http://www.inkscape.org/namespaces/inkscape"
   width="54.768749mm"
   height="64.293747mm"
   viewBox="0 0 54.768749 64.293747"
   version="1.1"
   id="svg8"
   inkscape:version="0.92.4 (5da689c313, 2019-01-14)"
   sodipodi:docname="android.svg">
  <defs
     id="defs2" />
  <sodipodi:namedview
     id="base"
     pagecolor="#ffffff"
     bordercolor="#666666"
     borderopacity="1.0"
     inkscape:pageopacity="0.0"
     inkscape:pageshadow="2"
     inkscape:zoom="0.35"
     inkscape:cx="103.49997"
     inkscape:cy="118.64287"
     inkscape:document-units="mm"
     inkscape:current-layer="layer1"
     showgrid="false"
     inkscape:window-width="1366"
     inkscape:window-height="704"
     inkscape:window-x="0"
     inkscape:window-y="27"
     inkscape:window-maximized="1" />
  <metadata
     id="metadata5">
    <rdf:RDF>
      <cc:Work
         rdf:about="">
        <dc:format>image/svg+xml</dc:format>
        <dc:type
           rdf:resource="http://purl.org/dc/dcmitype/StillImage" />
        <dc:title></dc:title>
      </cc:Work>
    </rdf:RDF>
  </metadata>
  <g
     inkscape:label="Layer 1"
     inkscape:groupmode="layer"
     id="layer1"
     transform="translate(-78.448967,-115.93051)">
    <image
       sodipodi:absref="/home/stephen/Downloads/index.png"
       xlink:href="Downloads/index.png"
       width="54.768749"
       height="64.293747"
       preserveAspectRatio="none"
       id="image18"
       x="78.448967"
       y="115.93051" />
    <g
       id="g21">
      <path
         style="fill:#fdfdfc;stroke-width:0.26458332"
         d="m 78.448967,148.07738 v -32.14687 h 27.384373 27.38438 v 32.14687 32.14688 H 105.83334 78.448967 Z"
         id="path37"
         inkscape:connector-curvature="0" />
      <path
         style="fill:#e6efcd;stroke-width:0.26458332"
         d="m 97.496276,178.57061 c -1.868259,-1.27153 -1.967615,-1.58948 -2.113976,-6.76511 l -0.132292,-4.67812 -1.852083,-0.14855 c -1.018646,-0.0817 -2.103645,-0.28551 -2.41111,-0.45291 -0.940891,-0.51226 -2.184409,-2.11741 -2.348063,-3.0309 -0.08529,-0.47606 -0.120924,-6.46149 -0.0792,-13.30097 l 0.07587,-12.43542 h 17.197918 17.19792 l 0.0759,12.43542 c 0.0417,6.83948 0.006,12.82491 -0.0792,13.30097 -0.16365,0.91349 -1.40717,2.51864 -2.34806,3.0309 -0.30747,0.1674 -1.39247,0.37121 -2.41111,0.45291 l -1.85209,0.14855 -0.13229,4.67812 c -0.11914,4.21329 -0.18728,4.75222 -0.68578,5.42396 -1.40759,1.89674 -3.51252,2.442 -5.36361,1.38939 -1.8992,-1.07997 -2.00496,-1.41055 -2.15269,-6.72897 l -0.13229,-4.7625 h -2.11667 -2.11667 l -0.13229,4.7625 c -0.11739,4.22633 -0.19186,4.8424 -0.66146,5.4722 -1.30244,1.74679 -3.813965,2.30611 -5.426647,1.20853 z m -15.50161,-17.9005 c -0.596479,-0.27089 -1.370386,-0.89335 -1.719791,-1.38325 l -0.635283,-0.89073 v -9.3927 -9.39271 l 0.637078,-0.89325 c 0.866931,-1.21553 2.640678,-1.98108 4.041646,-1.74439 1.601902,0.27064 3.015957,1.66527 3.372064,3.32574 0.365215,1.70294 0.363384,15.84066 -0.0022,17.43585 -0.330653,1.44255 -1.572857,2.8137 -2.877418,3.17612 -1.273474,0.35378 -1.561241,0.32918 -2.816037,-0.24068 z m 44.765554,0.22865 c -1.28318,-0.38384 -2.47717,-1.7604 -2.78929,-3.2158 -0.36843,-1.7179 -0.36411,-15.66129 0.005,-17.38414 0.3561,-1.66047 1.77016,-3.0551 3.37206,-3.32574 1.40097,-0.23669 3.17472,0.52886 4.04165,1.74439 l 0.63708,0.89325 v 9.39271 9.3927 l -0.63528,0.89073 c -0.65367,0.9165 -2.39729,1.8888 -3.33347,1.85885 -0.29104,-0.009 -0.8752,-0.12044 -1.29812,-0.24695 z M 88.935413,136.7942 c -0.428333,-0.24888 -0.47049,-0.49259 -0.318136,-1.83922 0.485622,-4.29233 2.929391,-8.32189 6.662416,-10.98572 l 1.69183,-1.20726 -1.191486,-2.18581 c -1.247137,-2.2879 -1.461821,-3.23563 -0.791242,-3.49296 0.607836,-0.23325 1.095479,0.31221 2.443655,2.73337 0.936481,1.6818 1.331411,2.17072 1.641975,2.03275 3.369505,-1.49696 10.148325,-1.49696 13.517835,0 0.31056,0.13797 0.70549,-0.35095 1.64197,-2.03275 1.34818,-2.42116 1.83582,-2.96662 2.44366,-2.73337 0.67058,0.25733 0.45589,1.20506 -0.79124,3.49296 l -1.19149,2.18581 1.69183,1.20726 c 3.73455,2.66492 6.17678,6.69321 6.66291,10.99004 0.15809,1.39737 0.12054,1.5864 -0.36689,1.84727 -0.75667,0.40496 -33.049711,0.39312 -33.747597,-0.0124 z m 9.875933,-7.22495 c 0.527764,-0.63592 0.08385,-1.46791 -0.783213,-1.46791 -0.531639,0 -0.809463,0.16186 -0.930071,0.54187 -0.202854,0.63913 0.273522,1.31022 0.930071,1.31022 0.255406,0 0.607851,-0.17288 0.783213,-0.38418 z m 15.610414,0 c 0.52777,-0.63592 0.0838,-1.46791 -0.78321,-1.46791 -0.53164,0 -0.80946,0.16186 -0.93007,0.54187 -0.20285,0.63913 0.27352,1.31022 0.93007,1.31022 0.2554,0 0.60785,-0.17288 0.78321,-0.38418 z"
         id="path35"
         inkscape:connector-curvature="0" />
      <path
         style="fill:#dae7af;stroke-width:0.26458332"
         d="m 97.562694,178.38932 c -1.712678,-1.07545 -1.913716,-1.7625 -1.914822,-6.54394 -5.55e-4,-2.35282 -0.07326,-4.46617 -0.161588,-4.69636 -0.124481,-0.32439 -0.561957,-0.41851 -1.945247,-0.41851 -2.03338,0 -3.131484,-0.55235 -4.174203,-2.09964 l -0.6041,-0.89643 0.06864,-12.85561 0.06864,-12.85561 h 16.933336 16.93333 v 13.01149 c 0,12.78773 -0.01,13.02434 -0.55349,13.75833 -1.061,1.43162 -2.12819,1.93747 -4.08753,1.93747 -1.38329,0 -1.82077,0.0941 -1.94525,0.41851 -0.0883,0.23019 -0.16104,2.34354 -0.16159,4.69636 -7.9e-4,3.80185 -0.0595,4.37378 -0.52675,5.14015 -0.84038,1.37833 -2.00329,1.96356 -3.65838,1.84106 -1.18497,-0.0877 -1.55452,-0.25075 -2.3331,-1.02933 -1.21359,-1.21359 -1.40435,-2.16362 -1.41197,-7.03186 l -0.006,-4.03489 h -2.24896 -2.24896 l -0.006,4.03489 c -0.008,4.86824 -0.19838,5.81827 -1.41197,7.03186 -0.77858,0.77858 -1.14813,0.94162 -2.333106,1.02933 -1.088317,0.0805 -1.603772,-0.0187 -2.270305,-0.43727 z M 81.935442,160.47917 c -0.483533,-0.24639 -1.168142,-0.87328 -1.521354,-1.39308 L 79.771884,158.141 v -9.00469 c 0,-10.16651 0.02058,-10.28366 2.011918,-11.45466 1.787737,-1.05128 3.840329,-0.51562 5.247775,1.3695 0.526554,0.70527 0.545515,1.05119 0.545515,9.95228 0,8.90108 -0.01896,9.247 -0.545515,9.95226 -1.317853,1.76513 -3.400247,2.38765 -5.096135,1.52348 z m 44.522278,0.0583 c -1.06251,-0.4628 -2.17595,-1.81348 -2.37147,-2.87677 -0.0862,-0.46866 -0.12067,-4.68336 -0.0767,-9.36599 0.0763,-8.11992 0.10526,-8.54768 0.62553,-9.24407 1.40813,-1.88482 3.46026,-2.42018 5.24777,-1.36903 1.99134,1.171 2.01192,1.28815 2.01192,11.45466 v 9.00469 l -0.6453,0.94965 c -1.10292,1.62309 -3.04258,2.20877 -4.79178,1.44686 z M 89.098446,136.65736 c -0.436881,-0.17628 -0.412429,-1.42945 0.06762,-3.46551 0.823255,-3.49171 3.062707,-6.74729 6.221994,-9.04516 l 1.871367,-1.36112 -0.778941,-1.37701 c -1.524023,-2.69416 -1.852633,-3.42052 -1.712581,-3.78549 0.382213,-0.99604 1.135461,-0.24202 2.754611,2.75741 1.013163,1.87685 0.806212,1.82599 3.945204,0.9696 1.11163,-0.30328 2.65542,-0.4692 4.36562,-0.4692 1.7102,0 3.254,0.16592 4.36563,0.4692 3.13899,0.85639 2.93203,0.90725 3.9452,-0.9696 1.61915,-2.99943 2.3724,-3.75345 2.75461,-2.75741 0.14005,0.36497 -0.18856,1.09133 -1.71258,3.78549 l -0.77894,1.37701 1.87136,1.36112 c 3.15929,2.29787 5.39874,5.55345 6.222,9.04516 0.51429,2.18132 0.50794,3.27749 -0.0202,3.48014 -0.50017,0.19193 -32.9053,0.17773 -33.382013,-0.0146 z m 9.820766,-6.99889 c 0.631563,-0.90168 0.08445,-1.80971 -1.095189,-1.81766 -0.386389,-0.003 -0.708424,0.23175 -0.901875,0.65633 -0.248619,0.54566 -0.217527,0.7525 0.178971,1.19063 0.620573,0.68572 1.325224,0.67437 1.818093,-0.0293 z m 15.658088,-0.0842 c 0.529,-0.80736 0.1259,-1.73953 -0.74962,-1.73348 -1.16507,0.008 -1.70791,0.92149 -1.08021,1.81766 0.52151,0.74456 1.3106,0.70826 1.82983,-0.0842 z"
         id="path33"
         inkscape:connector-curvature="0" />
      <path
         style="fill:#c8dc8b;stroke-width:0.26458332"
         d="m 97.843131,178.35096 c -1.887734,-0.93442 -2.196248,-1.94179 -2.196248,-7.17128 v -4.37958 l -1.937316,-0.12433 c -2.251061,-0.14447 -3.380589,-0.69473 -4.232521,-2.06193 -0.568712,-0.91268 -0.578167,-1.10675 -0.65534,-13.45199 -0.05792,-9.2659 0.0021,-12.6229 0.230835,-12.89844 0.462194,-0.55691 33.099409,-0.55691 33.561599,0 0.22868,0.27554 0.28876,3.63254 0.23084,12.89844 -0.0749,11.98178 -0.1013,12.5641 -0.60747,13.40412 -0.8276,1.37343 -2.02432,1.96501 -4.26612,2.10888 l -1.95159,0.12525 v 4.37958 c 0,5.24888 -0.31039,6.25405 -2.21611,7.17659 -1.35676,0.6568 -1.69482,0.66979 -3.07361,0.1181 -2.01947,-0.80803 -2.23239,-1.41992 -2.3832,-6.84907 l -0.13229,-4.7625 h -2.38125 -2.38125 l -0.13229,4.7625 c -0.15081,5.42915 -0.36372,6.04104 -2.38319,6.84907 -1.38349,0.55356 -1.755855,0.53871 -3.093479,-0.12341 z M 81.704489,160.12757 c -1.823999,-1.11217 -1.800314,-0.96581 -1.800314,-11.12414 0,-8.37501 0.0405,-9.21321 0.477397,-9.88 0.825241,-1.25948 1.981696,-1.80495 3.576427,-1.68692 1.200374,0.0889 1.551503,0.24773 2.38125,1.07748 l 0.97326,0.97325 v 9.53958 9.53958 l -1.114234,1.03934 c -0.975707,0.91013 -1.271756,1.03923 -2.38125,1.03836 -0.788692,-5.3e-4 -1.586217,-0.19562 -2.112536,-0.51653 z m 43.763921,-0.52183 -1.11424,-1.03934 v -9.53958 -9.53958 l 0.96686,-0.96685 c 1.73443,-1.73444 4.39813,-1.50991 5.82531,0.49102 l 0.61617,0.86389 v 9.13976 c 0,8.36379 -0.0405,9.20162 -0.4774,9.86836 -0.72981,1.11383 -1.98975,1.75955 -3.43545,1.76068 -1.1095,8e-4 -1.40554,-0.12823 -2.38125,-1.03836 z M 89.006664,136.23728 c -0.318881,-4.11386 2.552796,-9.32897 6.680418,-12.13199 0.851016,-0.57791 1.547301,-1.17177 1.547301,-1.31969 0,-0.14792 -0.565547,-1.3236 -1.25677,-2.61262 -0.691224,-1.28903 -1.172609,-2.42843 -1.069745,-2.53201 0.420037,-0.42297 1.026068,0.22422 2.223287,2.37428 0.693751,1.24589 1.387738,2.26372 1.542193,2.26185 0.154455,-0.002 1.054733,-0.26153 2.000622,-0.57701 2.47885,-0.82676 7.83989,-0.82676 10.31875,0 0.94588,0.31548 1.84616,0.57513 2.00061,0.57701 0.15446,0.002 0.84845,-1.01596 1.5422,-2.26185 1.19722,-2.15006 1.80325,-2.79725 2.22329,-2.37428 0.10286,0.10358 -0.37853,1.24298 -1.06975,2.53201 -0.69122,1.28902 -1.25677,2.4647 -1.25677,2.61262 0,0.14792 0.69629,0.74178 1.5473,1.31969 3.80439,2.58352 6.65478,7.36688 6.65478,11.16767 v 1.29505 h -16.80104 c -13.25077,0 -16.806457,-0.0699 -16.826676,-0.33073 z m 10.026886,-6.33677 c 0.687083,-0.68708 0.01077,-2.32833 -0.959445,-2.32833 -0.606643,0 -1.368888,0.80368 -1.368888,1.44329 0,0.76006 0.486779,1.20254 1.322916,1.20254 0.378354,0 0.830792,-0.14288 1.005417,-0.3175 z m 15.61042,0 c 0.68708,-0.68708 0.0108,-2.32833 -0.95945,-2.32833 -0.60664,0 -1.36889,0.80368 -1.36889,1.44329 0,0.76006 0.48678,1.20254 1.32292,1.20254 0.37835,0 0.83079,-0.14288 1.00542,-0.3175 z"
         id="path31"
         inkscape:connector-curvature="0" />
      <path
         style="fill:#c2d87c;stroke-width:0.26458332"
         d="m 97.577958,178.1183 c -1.493678,-0.91075 -1.666491,-1.59093 -1.666491,-6.55924 0,-3.11466 -0.09568,-4.55381 -0.3175,-4.77564 -0.182075,-0.18207 -1.056695,-0.31792 -2.050521,-0.31849 -2.008568,-0.001 -3.151647,-0.55062 -3.983408,-1.91482 -0.505406,-0.82893 -0.525798,-1.35651 -0.526749,-13.62846 L 89.0323,138.15551 h 16.80104 16.80104 l -5.3e-4,12.63385 c -5.3e-4,14.08372 0.0294,13.83742 -1.82465,15.07598 -0.70969,0.4741 -1.26969,0.60058 -2.65906,0.60058 -1.01615,0 -1.89424,0.1342 -2.07754,0.3175 -0.22204,0.22204 -0.3178,1.67394 -0.31849,4.82865 -8e-4,4.00746 -0.0587,4.60572 -0.51747,5.3582 -1.36619,2.24063 -4.78316,2.18899 -6.28019,-0.0949 -0.40074,-0.61138 -0.49864,-1.49497 -0.60969,-5.50274 l -0.13229,-4.7744 h -2.38125 -2.38125 l -0.13229,4.7744 c -0.11105,4.00777 -0.20895,4.89136 -0.60969,5.50274 -1.10205,1.68132 -3.471892,2.25526 -5.132151,1.24294 z M 82.020842,160.16831 c -1.954559,-1.24547 -1.852083,-0.62505 -1.852083,-11.21299 v -9.51756 l 0.979261,-0.89742 c 0.538594,-0.49359 1.283517,-0.97379 1.655385,-1.06712 0.967965,-0.24295 2.355303,0.076 3.191408,0.73367 1.383401,1.08818 1.450022,1.58703 1.449576,10.85418 -4.5e-4,9.35461 -0.05468,9.71769 -1.62301,10.8667 -1.024496,0.75058 -2.821608,0.86432 -3.800537,0.24054 z m 44.336518,0.0134 c -0.49898,-0.25444 -1.15383,-0.79856 -1.45521,-1.20915 -0.52347,-0.71316 -0.55165,-1.13317 -0.63023,-9.39271 -0.0538,-5.64993 0.0167,-8.98324 0.20321,-9.61886 0.508,-1.73088 2.62402,-2.93049 4.38815,-2.48773 0.37187,0.0933 1.11679,0.57354 1.65538,1.06713 l 0.97926,0.89742 v 9.52402 9.52401 l -0.66145,0.70791 c -1.3832,1.48035 -2.87024,1.80834 -4.47911,0.98796 z M 89.118384,136.14612 c -0.301287,-0.78514 0.492852,-4.10441 1.430308,-5.97828 1.065395,-2.1296 3.673594,-5.0461 5.642636,-6.30963 0.719201,-0.46151 1.307639,-0.89396 1.307639,-0.961 0,-0.067 -0.595039,-1.22569 -1.322308,-2.57477 -1.204758,-2.23482 -1.359775,-2.80443 -0.763211,-2.80443 0.114146,0 0.650549,0.80367 1.192008,1.78594 0.541459,0.98226 1.204974,2.10597 1.474478,2.49711 l 0.490007,0.71118 1.469729,-0.50566 c 3.53178,-1.21511 8.06062,-1.21337 11.60028,0.004 l 1.45679,0.50121 0.49001,-0.71118 c 0.2695,-0.39114 0.93302,-1.51485 1.47448,-2.49711 0.54146,-0.98227 1.07786,-1.78594 1.192,-1.78594 0.59657,0 0.44155,0.56962 -0.76321,2.80443 -0.72727,1.34909 -1.3223,2.50773 -1.3223,2.57477 0,0.067 0.58843,0.49949 1.30764,0.961 1.96904,1.26353 4.57724,4.18004 5.64263,6.30963 0.93746,1.87387 1.7316,5.19314 1.43031,5.97829 -0.14578,0.3799 -1.80908,0.42188 -16.71496,0.42188 -14.905875,0 -16.569174,-0.042 -16.714956,-0.42189 z m 9.597744,-5.86602 c 0.160116,-0.10691 0.420301,-0.44005 0.578189,-0.7403 0.754583,-1.435 -1.498083,-2.72694 -2.431392,-1.39445 -0.55494,0.79228 -0.532703,1.1685 0.106875,1.80808 0.542501,0.5425 1.230387,0.67118 1.746328,0.32667 z m 15.980752,-0.32667 c 0.63958,-0.63958 0.66182,-1.0158 0.10688,-1.80808 -0.93331,-1.33249 -3.18597,-0.0405 -2.43139,1.39445 0.56931,1.08267 1.49139,1.24675 2.32451,0.41363 z"
         id="path29"
         inkscape:connector-curvature="0" />
      <path
         style="fill:#bad36a;stroke-width:0.26458332"
         d="m 97.842552,178.20704 c -1.644565,-0.81093 -1.784711,-1.29819 -1.931085,-6.71403 l -0.132292,-4.89479 -1.984375,-0.1323 c -2.520307,-0.16802 -3.751113,-0.86281 -4.354182,-2.45794 -0.367201,-0.97125 -0.411851,-2.68982 -0.348585,-13.41705 l 0.07256,-12.30313 h 16.668747 16.66875 l 0.0726,12.30313 c 0.0633,10.72723 0.0186,12.4458 -0.34859,13.41705 -0.59892,1.58417 -1.813,2.26835 -4.34473,2.44842 l -1.99382,0.14182 -0.13229,4.89479 c -0.14707,5.44146 -0.28888,5.92457 -1.97371,6.72408 -1.13317,0.53772 -2.07677,0.53127 -3.24306,-0.0222 -1.72316,-0.8177 -1.92488,-1.49657 -1.92599,-6.48183 -5.3e-4,-2.42558 -0.0733,-4.59847 -0.16159,-4.82865 -0.23679,-0.61707 -4.99826,-0.61707 -5.23505,0 -0.0883,0.23018 -0.16105,2.40307 -0.16159,4.82865 -8.8e-4,3.84805 -0.0643,4.51399 -0.49793,5.22506 -0.92719,1.52047 -3.046538,2.09098 -4.713747,1.26889 z m -15.254827,-17.834 c -0.415818,-0.1246 -0.997798,-0.44179 -1.293288,-0.70486 -1.182061,-1.05235 -1.257993,-1.69977 -1.257559,-10.7224 4.53e-4,-9.37275 0.05221,-9.71554 1.643105,-10.88171 1.49987,-1.09944 4.092984,-0.46714 5.133643,1.25178 0.462461,0.76387 0.498883,1.47112 0.498883,9.68758 0,10.05238 -0.0075,10.09145 -2.128277,11.11811 -1.172733,0.56772 -1.451289,0.5947 -2.596507,0.2515 z m 43.874495,-0.24721 c -2.10341,-1.05953 -2.10805,-1.08398 -2.10805,-11.1224 0,-8.21646 0.0364,-8.92371 0.49889,-9.68758 1.04066,-1.71892 3.63377,-2.35122 5.13364,-1.25178 1.59228,1.16718 1.64269,1.50292 1.64269,10.93936 0,7.66426 -0.0503,8.69757 -0.4626,9.50619 -0.9451,1.85344 -2.90021,2.52509 -4.70457,1.61621 z M 89.333662,136.33176 c -0.605321,-0.38353 0.110121,-3.70068 1.319146,-6.11624 1.22749,-2.45245 2.854638,-4.33942 5.16124,-5.98538 0.926705,-0.66128 1.684919,-1.31507 1.684919,-1.45287 0,-0.13779 -0.535782,-1.19477 -1.190625,-2.34884 -0.654844,-1.15407 -1.190625,-2.23143 -1.190625,-2.39412 0,-0.75208 0.768981,0.11315 1.910766,2.14992 0.877722,1.56572 1.389245,2.21775 1.719792,2.19219 0.258766,-0.02 1.412265,-0.2879 2.563325,-0.59531 2.81007,-0.75048 6.23342,-0.75048 9.04348,0 1.15107,0.30741 2.30456,0.5753 2.56333,0.59531 0.33054,0.0256 0.84207,-0.62647 1.71979,-2.19219 1.14178,-2.03677 1.91077,-2.902 1.91077,-2.14992 0,0.16269 -0.53578,1.24005 -1.19063,2.39412 -0.65484,1.15407 -1.19062,2.21105 -1.19062,2.34884 0,0.1378 0.75821,0.79159 1.68492,1.45287 2.3066,1.64596 3.93374,3.53293 5.16124,5.98538 1.20902,2.41556 1.92446,5.73271 1.31914,6.11624 -0.47053,0.29811 -32.52883,0.29811 -32.999358,0 z m 9.870093,-6.43721 c 0.527328,-0.75286 0.520514,-1.23462 -0.026,-1.83852 -0.815556,-0.90118 -2.737118,-0.32467 -2.737118,0.8212 0,1.4495 1.955998,2.16966 2.763122,1.01732 z m 15.610415,0 c 0.52733,-0.75286 0.52051,-1.23462 -0.026,-1.83852 -0.81555,-0.90118 -2.73711,-0.32467 -2.73711,0.8212 0,1.4495 1.956,2.16966 2.76312,1.01732 z"
         id="path27"
         inkscape:connector-curvature="0" />
      <path
         style="fill:#acca4c;stroke-width:0.26458332"
         d="m 97.262424,177.69371 c -1.135797,-0.95571 -1.347802,-2.03931 -1.349482,-6.89745 -0.0017,-4.88395 0.17158,-4.58338 -2.647309,-4.59229 -0.971015,-0.003 -1.737048,-0.17645 -2.302258,-0.52109 -1.694621,-1.03326 -1.666492,-0.78321 -1.666492,-14.81423 v -12.71314 h 16.536457 16.53646 v 12.71314 c 0,14.03102 0.0281,13.78097 -1.66649,14.81423 -0.56521,0.34464 -1.33124,0.51801 -2.30226,0.52109 -2.81889,0.009 -2.64562,-0.29166 -2.64731,4.59229 -0.002,4.96453 -0.21203,5.9853 -1.4236,6.90942 -1.16425,0.88801 -3.19279,0.93225 -4.25985,0.0929 -1.26019,-0.99126 -1.45882,-1.90145 -1.45882,-6.68464 0,-5.07844 0.0938,-4.9126 -2.77813,-4.9126 -2.87191,0 -2.77812,-0.16584 -2.77812,4.9126 0,4.78319 -0.19864,5.69338 -1.45883,6.68464 -1.08888,0.85652 -3.253677,0.80413 -4.333966,-0.10487 z M 82.263845,160.12417 c -0.30291,-0.12255 -0.868457,-0.60038 -1.25677,-1.06187 l -0.706025,-0.83906 v -9.244 -9.244 l 0.876307,-0.95622 c 0.73143,-0.79813 1.092306,-0.97489 2.182812,-1.06917 1.616145,-0.13974 2.87879,0.55717 3.439094,1.89816 0.557345,1.33392 0.557345,17.45691 0,18.79083 -0.66388,1.58889 -2.832974,2.41404 -4.535418,1.72533 z m 43.860345,-0.26389 c -1.57246,-0.98693 -1.63783,-1.42812 -1.63673,-11.04679 0.001,-8.13592 0.033,-8.72612 0.51746,-9.52066 1.20371,-1.97415 3.91707,-2.22406 5.49173,-0.50582 l 0.86898,0.94823 v 9.26819 9.26818 l -0.87631,0.95622 c -1.1334,1.23676 -2.97675,1.50384 -4.36513,0.63245 z M 89.296883,135.43297 c 0,-3.74621 3.155046,-8.91061 6.91943,-11.32621 0.811072,-0.52047 1.282654,-1.01203 1.282654,-1.33699 0,-0.28266 -0.535782,-1.4428 -1.190625,-2.57811 -0.654844,-1.1353 -1.190625,-2.15171 -1.190625,-2.25868 0,-0.60225 0.686302,0.25095 1.79554,2.2322 1.433348,2.56014 1.489304,2.58165 4.422163,1.70035 2.18149,-0.65552 6.81435,-0.65552 8.99584,0 2.93286,0.8813 2.98882,0.85979 4.42216,-1.70035 1.10924,-1.98125 1.79555,-2.83445 1.79555,-2.2322 0,0.10697 -0.53578,1.12338 -1.19063,2.25868 -0.65484,1.13531 -1.19062,2.29545 -1.19062,2.57811 0,0.32496 0.47158,0.81652 1.28265,1.33699 3.76438,2.4156 6.91943,7.58 6.91943,11.32621 v 0.87046 H 105.83334 89.296883 Z m 9.988021,-5.4123 c 0.828316,-1.08437 0.01132,-2.71308 -1.360955,-2.71308 -1.408751,0 -2.055335,2.21125 -0.888003,3.03688 0.685613,0.48492 1.748044,0.33195 2.248958,-0.3238 z m 15.353106,0.31463 c 1.13488,-0.7949 0.50856,-3.02771 -0.8493,-3.02771 -2.27943,0 -2.28948,3.2436 -0.0106,3.4187 0.14953,0.0115 0.53648,-0.16446 0.8599,-0.39099 z"
         id="path25"
         inkscape:connector-curvature="0" />
      <path
         style="fill:#a2c437;stroke-width:0.26458332"
         d="m 98.114249,177.98611 c -1.620867,-0.70504 -1.791384,-1.29843 -1.938199,-6.74484 l -0.132292,-4.90764 -2.17596,-0.16181 c -1.806062,-0.1343 -2.334196,-0.2825 -3.106799,-0.87179 -0.511962,-0.39049 -1.021061,-1.03205 -1.131332,-1.42569 -0.11027,-0.39364 -0.200492,-6.25211 -0.200492,-13.01883 v -12.30313 h 16.404165 16.40417 v 12.30313 c 0,6.76672 -0.0902,12.62519 -0.2005,13.01883 -0.11027,0.39364 -0.61936,1.0352 -1.13132,1.42569 -0.77261,0.58929 -1.30074,0.73749 -3.10681,0.87179 l -2.17596,0.16181 -0.13229,4.94254 c -0.1505,5.62286 -0.31492,6.10807 -2.30861,6.81277 -0.92779,0.32794 -1.20224,0.32791 -2.06428,-1.8e-4 -1.9285,-0.73399 -2.09232,-1.23185 -2.24169,-6.8125 l -0.13229,-4.94263 h -2.91042 -2.91042 l -0.13229,4.90775 c -0.14781,5.48359 -0.31638,6.05404 -1.99645,6.75602 -1.10173,0.46033 -1.600528,0.45823 -2.679931,-0.0113 z m -16.692605,-18.77555 -0.988302,-0.90537 -0.08405,-8.55349 c -0.09188,-9.35001 -0.007,-10.08028 1.299753,-11.17982 1.448913,-1.21918 4.01539,-0.74553 4.865234,0.89788 0.581492,1.12449 0.59737,17.91214 0.018,19.03251 -0.553329,1.07002 -1.536564,1.61365 -2.918517,1.61365 -1.001621,0 -1.369817,-0.15206 -2.192121,-0.90536 z m 44.611096,0.30874 c -0.38647,-0.3267 -0.83295,-0.85406 -0.99218,-1.17192 -0.19216,-0.38359 -0.28951,-3.52413 -0.28951,-9.3397 0,-9.61888 0.0447,-9.92205 1.57884,-10.7154 1.82177,-0.94208 3.90214,-0.22102 4.67093,1.61895 0.52888,1.26579 0.52888,16.9186 0,18.18439 -0.82528,1.97518 -3.432,2.72217 -4.96808,1.42368 z M 89.581854,134.59157 c 0.563059,-4.14921 3.23023,-8.13364 7.065178,-10.55454 0.614085,-0.38765 1.116518,-0.85216 1.116518,-1.03224 0,-0.18843 0.365005,-0.33685 0.859896,-0.34966 0.472942,-0.0122 1.801674,-0.28013 2.952744,-0.59531 2.77184,-0.75898 5.74247,-0.75898 8.51431,0 1.15106,0.31518 2.47979,0.58307 2.95274,0.59531 0.49489,0.0128 0.85989,0.16123 0.85989,0.34966 0,0.18008 0.50244,0.64459 1.11652,1.03224 3.83495,2.4209 6.50212,6.40533 7.06518,10.55454 l 0.1964,1.44727 H 105.83334 89.385454 Z m 9.769196,-4.37356 c 0.7151,-0.7151 0.66634,-1.73896 -0.120265,-2.52557 -0.793388,-0.79339 -1.442094,-0.82119 -2.357595,-0.10106 -0.802231,0.63103 -0.917164,1.66559 -0.285262,2.56776 0.538441,0.76873 2.02166,0.80033 2.763122,0.0589 z m 15.72771,-0.0589 c 0.6319,-0.90217 0.51696,-1.93673 -0.28527,-2.56776 -0.38342,-0.3016 -0.92462,-0.54837 -1.20265,-0.54837 -0.72416,0 -1.80437,1.18077 -1.80437,1.97235 0,1.5674 2.4093,2.40442 3.29229,1.14378 z"
         id="path23"
         inkscape:connector-curvature="0" />
    </g>
  </g>
</svg>
