<?xml version="1.0" encoding="UTF-8" standalone="no"?>
<!-- Created with Inkscape (http://www.inkscape.org/) -->

<svg
   xmlns:dc="http://purl.org/dc/elements/1.1/"
   xmlns:cc="http://creativecommons.org/ns#"
   xmlns:rdf="http://www.w3.org/1999/02/22-rdf-syntax-ns#"
   xmlns:svg="http://www.w3.org/2000/svg"
   xmlns="http://www.w3.org/2000/svg"
   xmlns:xlink="http://www.w3.org/1999/xlink"
   xmlns:sodipodi="http://sodipodi.sourceforge.net/DTD/sodipodi-0.dtd"
   xmlns:inkscape="http://www.inkscape.org/namespaces/inkscape"
   width="59.53125mm"
   height="59.53125mm"
   viewBox="0 0 59.53125 59.53125"
   version="1.1"
   id="svg8"
   inkscape:version="0.92.4 (5da689c313, 2019-01-14)"
   sodipodi:docname="seo.svg">
  <defs
     id="defs2" />
  <sodipodi:namedview
     id="base"
     pagecolor="#ffffff"
     bordercolor="#666666"
     borderopacity="1.0"
     inkscape:pageopacity="0.0"
     inkscape:pageshadow="2"
     inkscape:zoom="0.35"
     inkscape:cx="89.642891"
     inkscape:cy="143.92855"
     inkscape:document-units="mm"
     inkscape:current-layer="layer1"
     showgrid="false"
     inkscape:window-width="1366"
     inkscape:window-height="704"
     inkscape:window-x="0"
     inkscape:window-y="27"
     inkscape:window-maximized="1" />
  <metadata
     id="metadata5">
    <rdf:RDF>
      <cc:Work
         rdf:about="">
        <dc:format>image/svg+xml</dc:format>
        <dc:type
           rdf:resource="http://purl.org/dc/dcmitype/StillImage" />
        <dc:title></dc:title>
      </cc:Work>
    </rdf:RDF>
  </metadata>
  <g
     inkscape:label="Layer 1"
     inkscape:groupmode="layer"
     id="layer1"
     transform="translate(-82.115318,-127.38318)">
    <image
       sodipodi:absref="/home/stephen/Downloads/index.png"
       xlink:href="Downloads/index.png"
       width="59.53125"
       height="59.53125"
       preserveAspectRatio="none"
       id="image18"
       x="82.115318"
       y="127.38318" />
    <g
       id="g21">
      <path
         style="fill:#f3f4f4;stroke-width:0.26458332"
         d="m 82.115318,157.1488 v -29.76562 h 29.765622 29.76563 v 29.76562 29.76563 H 111.88094 82.115318 Z"
         id="path37"
         inkscape:connector-curvature="0" />
      <path
         style="fill:#4bcdd7;stroke-width:0.26458332"
         d="m 131.94926,183.14102 c -2.08805,-2.07537 -3.79644,-3.97123 -3.79644,-4.21303 0,-0.24179 0.29765,-0.79337 0.66146,-1.22572 0.3638,-0.43236 0.66145,-0.89061 0.66145,-1.01833 0,-0.12773 -1.00954,-1.23653 -2.24342,-2.46401 l -2.24343,-2.23177 -0.73313,0.68864 c -1.35161,1.26958 -4.83591,3.35189 -7.02796,4.20009 -9.9728,3.85893 -20.784601,1.49841 -28.108176,-6.1368 -3.827359,-3.99022 -5.90561,-8.10556 -6.603314,-13.07585 -1.373861,-9.78708 1.053685,-17.38188 7.499339,-23.46239 3.944868,-3.72138 7.989639,-5.73075 12.932431,-6.4246 7.22312,-1.01394 13.13483,0.0341 18.32558,3.24889 2.74291,1.69875 6.71766,5.71271 8.41374,8.49674 4.05395,6.65435 4.85535,14.89707 2.16839,22.30281 -0.94526,2.6053 -1.87227,4.28152 -3.7122,6.7124 l -1.35375,1.78855 2.19701,2.20848 c 1.20835,1.21466 2.30151,2.20848 2.42924,2.20848 0.12772,0 0.58597,-0.29766 1.01832,-0.66146 0.43236,-0.3638 0.97545,-0.66146 1.20688,-0.66146 0.47518,0 7.22559,6.57812 7.74352,7.54589 0.47673,0.89078 -0.12109,2.01481 -2.03836,3.83255 -1.65906,1.57292 -2.46938,2.11531 -3.16026,2.11531 -0.24227,0 -2.14888,-1.69803 -4.23692,-3.77341 z m -21.48362,-14.59775 c 2.5897,-0.46188 4.89916,-1.50422 7.20746,-3.25299 3.91696,-2.9675 5.97398,-7.22851 5.97398,-12.37481 0,-8.90517 -7.04441,-15.98634 -15.9203,-16.00338 -2.72321,-0.005 -4.40516,0.37834 -7.0562,1.60916 -6.315329,2.93208 -10.067134,10.81056 -8.524122,17.89995 0.345641,1.58805 0.597901,1.95726 0.949068,1.38906 0.08994,-0.14552 0.454151,-0.26458 0.809365,-0.26458 h 0.645844 v -5.77026 c 0,-4.57777 0.07793,-5.87641 0.377068,-6.28386 0.330597,-0.45029 0.697436,-0.51145 2.976562,-0.4962 1.429722,0.01 2.851655,0.15416 3.159855,0.32133 0.78659,0.42666 0.89485,1.28593 0.89485,7.10269 v 5.1263 h 0.76896 0.76897 l 0.0909,-4.98683 c 0.068,-3.72979 0.18246,-5.09703 0.45406,-5.42396 0.29668,-0.35714 0.88699,-0.43713 3.22614,-0.43713 3.84719,0 3.68677,-0.26159 3.68677,6.012 v 4.83592 h 0.92604 0.92604 v -7.16114 c 0,-4.43039 0.10445,-7.3563 0.2739,-7.67292 0.24485,-0.45752 0.57445,-0.51134 3.10885,-0.50772 1.55923,0.002 3.01356,0.1168 3.23184,0.25459 0.33219,0.20972 0.41843,1.46978 0.52916,7.7317 0.12766,7.21901 0.15084,7.48459 0.66146,7.57909 0.7874,0.14572 1.19063,0.56283 1.19063,1.23161 0,1.25923 0.0262,1.25669 -14.42546,1.39803 -7.491207,0.0733 -13.620375,0.18395 -13.620375,0.24596 0,0.34555 1.770939,2.59782 2.905937,3.69576 2.398062,2.31974 5.238458,3.7288 8.690978,4.31141 1.84628,0.31156 2.87802,0.28961 5.11174,-0.10878 z m 18.75135,-15.10566 c 0.64519,-0.77741 -0.16021,-6.03938 -1.27459,-8.32735 -0.49327,-1.01275 -1.52659,-1.40148 -1.80397,-0.67866 -0.088,0.22924 0.14181,1.51751 0.51062,2.86283 0.3688,1.34532 0.74811,3.21877 0.8429,4.16321 0.22685,2.26017 0.87504,3.00415 1.72504,1.97997 z m -3.833,-12.04655 c 0.38102,-0.61651 -0.25016,-1.69268 -2.06837,-3.52661 -3.58094,-3.61192 -7.44606,-5.62483 -12.34455,-6.42891 -2.80858,-0.46102 -4.0444,-0.32769 -4.18045,0.45102 -0.14263,0.81632 0.39983,1.07878 2.73184,1.32177 1.29717,0.13516 3.01333,0.43922 3.81369,0.67568 3.45371,1.02038 7.83558,3.96437 9.77261,6.56579 0.89472,1.2016 1.86599,1.60341 2.27523,0.94126 z"
         id="path35"
         inkscape:connector-curvature="0" />
      <path
         style="fill:#9da1a1;stroke-width:0.26458332"
         d="m 131.94926,183.14102 c -2.08805,-2.07537 -3.79644,-3.97123 -3.79644,-4.21303 0,-0.24179 0.29765,-0.79337 0.66146,-1.22572 0.3638,-0.43236 0.66145,-0.89061 0.66145,-1.01833 0,-0.12773 -1.00954,-1.23653 -2.24342,-2.46401 l -2.24343,-2.23177 -0.73313,0.68864 c -1.35161,1.26958 -4.83591,3.35189 -7.02796,4.20009 -9.9728,3.85893 -20.784601,1.49841 -28.108176,-6.1368 -3.827359,-3.99022 -5.90561,-8.10556 -6.603314,-13.07585 -1.373861,-9.78708 1.053685,-17.38188 7.499339,-23.46239 3.944868,-3.72138 7.989639,-5.73075 12.932431,-6.4246 7.22312,-1.01394 13.13483,0.0341 18.32558,3.24889 2.74291,1.69875 6.71766,5.71271 8.41374,8.49674 4.05395,6.65435 4.85535,14.89707 2.16839,22.30281 -0.94526,2.6053 -1.87227,4.28152 -3.7122,6.7124 l -1.35375,1.78855 2.19701,2.20848 c 1.20835,1.21466 2.30151,2.20848 2.42924,2.20848 0.12772,0 0.58597,-0.29766 1.01832,-0.66146 0.43236,-0.3638 0.97545,-0.66146 1.20688,-0.66146 0.47518,0 7.22559,6.57812 7.74352,7.54589 0.47673,0.89078 -0.12109,2.01481 -2.03836,3.83255 -1.65906,1.57292 -2.46938,2.11531 -3.16026,2.11531 -0.24227,0 -2.14888,-1.69803 -4.23692,-3.77341 z m -5.82948,-15.8719 c 1.8172,-2.38332 3.11795,-4.96047 4.05016,-8.02453 0.64034,-2.10473 0.71785,-2.77587 0.71565,-6.19683 -0.002,-3.10915 -0.11158,-4.23773 -0.57807,-5.95312 -1.16536,-4.28529 -3.26088,-7.82923 -6.42449,-10.86509 -3.21439,-3.08458 -6.30099,-4.85516 -10.41459,-5.97416 -2.99567,-0.81489 -8.59976,-0.8118 -11.64166,0.006 -3.623691,0.97472 -7.988876,3.36915 -9.910272,5.43605 l -0.649851,0.69907 1.614892,1.61489 1.614892,1.61489 1.606423,-1.23611 c 3.395355,-2.61267 7.307426,-3.95177 11.544746,-3.95177 3.27021,0 5.29787,0.49564 8.53884,2.08725 10.22623,5.022 13.21493,18.45892 6.16996,27.73952 l -1.38548,1.82515 1.53214,1.54829 c 0.84268,0.85156 1.67209,1.5483 1.84313,1.5483 0.17104,0 0.96915,-0.86321 1.77358,-1.91823 z m -15.65414,1.27415 c 2.5897,-0.46188 4.89916,-1.50422 7.20746,-3.25299 3.91696,-2.9675 5.97398,-7.22851 5.97398,-12.37481 0,-8.90517 -7.04441,-15.98634 -15.9203,-16.00338 -2.72321,-0.005 -4.40516,0.37834 -7.0562,1.60916 -6.315329,2.93208 -10.067134,10.81056 -8.524122,17.89995 0.345641,1.58805 0.597901,1.95726 0.949068,1.38906 0.08994,-0.14552 0.454151,-0.26458 0.809365,-0.26458 h 0.645844 v -5.77026 c 0,-4.57777 0.07793,-5.87641 0.377068,-6.28386 0.330597,-0.45029 0.697436,-0.51145 2.976562,-0.4962 1.429722,0.01 2.851655,0.15416 3.159855,0.32133 0.78659,0.42666 0.89485,1.28593 0.89485,7.10269 v 5.1263 h 0.76896 0.76897 l 0.0909,-4.98683 c 0.068,-3.72979 0.18246,-5.09703 0.45406,-5.42396 0.29668,-0.35714 0.88699,-0.43713 3.22614,-0.43713 3.84719,0 3.68677,-0.26159 3.68677,6.012 v 4.83592 h 0.92604 0.92604 v -7.16114 c 0,-4.43039 0.10445,-7.3563 0.2739,-7.67292 0.24485,-0.45752 0.57445,-0.51134 3.10885,-0.50772 1.55923,0.002 3.01356,0.1168 3.23184,0.25459 0.33219,0.20972 0.41843,1.46978 0.52916,7.7317 0.12766,7.21901 0.15084,7.48459 0.66146,7.57909 0.7874,0.14572 1.19063,0.56283 1.19063,1.23161 0,1.25923 0.0262,1.25669 -14.42546,1.39803 -7.491207,0.0733 -13.620375,0.18395 -13.620375,0.24596 0,0.34555 1.770939,2.59782 2.905937,3.69576 2.398062,2.31974 5.238458,3.7288 8.690978,4.31141 1.84628,0.31156 2.87802,0.28961 5.11174,-0.10878 z"
         id="path33"
         inkscape:connector-curvature="0" />
      <path
         style="fill:#0693a7;stroke-width:0.26458332"
         d="m 132.50841,183.45516 c -1.92142,-1.9026 -3.64511,-3.74256 -3.83041,-4.0888 -0.30321,-0.56655 -0.25341,-0.72463 0.49772,-1.58012 0.62986,-0.71737 0.77495,-1.06117 0.59138,-1.40131 -0.28296,-0.5243 -4.38224,-4.55175 -4.63294,-4.55175 -0.0929,0 -1.00924,0.64016 -2.0362,1.42258 -4.81056,3.66508 -10.71848,5.45336 -16.88565,5.11114 -3.75648,-0.20845 -6.454384,-0.93879 -9.941784,-2.69132 -5.19703,-2.61166 -8.808074,-6.22515 -11.37532,-11.38303 -7.89076,-15.85338 2.171426,-34.51582 19.770214,-36.668 10.73734,-1.31309 21.05753,4.32345 25.85923,14.12343 1.62716,3.32092 2.3554,6.08022 2.56779,9.72934 0.35858,6.16065 -1.3824,11.91614 -5.09772,16.85247 -1.12939,1.50055 -1.39115,2.02132 -1.19694,2.38125 0.13672,0.25338 1.20586,1.39084 2.37588,2.5277 2.27726,2.21273 2.44702,2.26006 3.58719,1.0002 0.27559,-0.30452 0.65344,-0.55368 0.83967,-0.55368 0.47252,0 7.71847,7.05762 7.92991,7.7238 0.1387,0.43704 -0.3128,1.03136 -2.29779,3.02464 -1.35873,1.3644 -2.64148,2.48073 -2.85057,2.48073 -0.20909,0 -1.95224,-1.55667 -3.87366,-3.45927 z m 6.14785,-1.47665 c 0.10382,-0.27057 -0.7051,-1.26652 -2.45686,-3.02488 l -2.61165,-2.62148 -0.62783,0.62782 c -0.81461,0.81462 -0.68637,1.0408 2.16602,3.82008 2.02405,1.97219 2.31572,2.16904 2.81669,1.90092 0.30735,-0.16449 0.62849,-0.4806 0.71363,-0.70246 z m -27.02934,-13.19202 c 5.75054,-1.46176 10.44906,-6.12133 11.94381,-11.84481 0.56558,-2.16557 0.54983,-5.92546 -0.034,-8.12725 -1.48391,-5.59601 -6.17909,-10.2871 -11.78805,-11.7778 -1.88014,-0.49969 -6.32194,-0.49969 -8.20208,0 -5.040261,1.33955 -9.212232,5.12037 -11.188806,10.13977 -1.032699,2.62248 -1.301376,6.86093 -0.606783,9.57219 1.512546,5.90404 6.029245,10.50735 11.795589,12.02175 1.94089,0.50974 6.10586,0.51806 8.08035,0.0161 z m -18.417508,-9.27861 c -0.42379,-0.51064 -0.04718,-1.25264 0.708223,-1.39536 1.130061,-0.2135 1.162266,-0.38993 1.162266,-6.36715 0,-4.10819 0.09008,-5.82561 0.3175,-6.05302 0.396745,-0.39675 4.795959,-0.4315 5.520729,-0.0436 0.48191,0.25791 0.51177,0.60992 0.51177,6.0325 0,6.1593 0.0485,6.39361 1.32292,6.39361 1.25434,0 1.32291,-0.28802 1.32291,-5.55625 0,-3.47486 0.0933,-5.01457 0.3175,-5.23875 0.43246,-0.43246 5.28255,-0.43246 5.715,0 0.21865,0.21864 0.32725,1.68093 0.34881,4.69635 0.0172,2.40837 0.10768,4.73604 0.20104,5.1726 0.15416,0.72097 0.26653,0.79375 1.22546,0.79375 h 1.05574 l 0.13229,-7.40833 c 0.0728,-4.07458 0.22861,-7.55716 0.34634,-7.73906 0.2245,-0.34686 4.76422,-0.48515 5.58514,-0.17013 0.36773,0.14111 0.41852,1.05223 0.41852,7.50823 0,7.67925 0.012,7.76195 1.16226,7.97926 0.75541,0.14272 1.13202,0.88472 0.70823,1.39536 -0.30912,0.37247 -1.86997,0.41905 -14.04133,0.41905 -12.17135,0 -13.732195,-0.0466 -14.041318,-0.41905 z m 32.910368,7.76124 c 1.8172,-2.38332 3.11795,-4.96047 4.05016,-8.02453 0.64034,-2.10473 0.71785,-2.77587 0.71565,-6.19683 -0.002,-3.10915 -0.11158,-4.23773 -0.57807,-5.95312 -1.16536,-4.28529 -3.26088,-7.82923 -6.42449,-10.86509 -3.21439,-3.08458 -6.30099,-4.85516 -10.41459,-5.97416 -2.99567,-0.81489 -8.59976,-0.8118 -11.64166,0.006 -3.623691,0.97472 -7.988876,3.36915 -9.910272,5.43605 l -0.649851,0.69907 1.614892,1.61489 1.614892,1.61489 1.606423,-1.23611 c 3.395355,-2.61267 7.307426,-3.95177 11.544746,-3.95177 3.27021,0 5.29787,0.49564 8.53884,2.08725 10.22623,5.022 13.21493,18.45892 6.16996,27.73952 l -1.38548,1.82515 1.53214,1.54829 c 0.84268,0.85156 1.67209,1.5483 1.84313,1.5483 0.17104,0 0.96915,-0.86321 1.77358,-1.91823 z"
         id="path31"
         inkscape:connector-curvature="0" />
      <path
         style="fill:#cb3e2d;stroke-width:0.26458332"
         d="m 132.50841,183.45516 c -1.92142,-1.9026 -3.64511,-3.74256 -3.83041,-4.0888 -0.30321,-0.56655 -0.25341,-0.72463 0.49772,-1.58012 0.62986,-0.71737 0.77495,-1.06117 0.59138,-1.40131 -0.28296,-0.5243 -4.38224,-4.55175 -4.63294,-4.55175 -0.0929,0 -1.00924,0.64016 -2.0362,1.42258 -4.81056,3.66508 -10.71848,5.45336 -16.88565,5.11114 -3.75648,-0.20845 -6.454384,-0.93879 -9.941784,-2.69132 -5.19703,-2.61166 -8.808074,-6.22515 -11.37532,-11.38303 -7.89076,-15.85338 2.171426,-34.51582 19.770214,-36.668 10.73734,-1.31309 21.05753,4.32345 25.85923,14.12343 1.62716,3.32092 2.3554,6.08022 2.56779,9.72934 0.35858,6.16065 -1.3824,11.91614 -5.09772,16.85247 -1.12939,1.50055 -1.39115,2.02132 -1.19694,2.38125 0.13672,0.25338 1.20586,1.39084 2.37588,2.5277 2.27726,2.21273 2.44702,2.26006 3.58719,1.0002 0.27559,-0.30452 0.65344,-0.55368 0.83967,-0.55368 0.47252,0 7.71847,7.05762 7.92991,7.7238 0.1387,0.43704 -0.3128,1.03136 -2.29779,3.02464 -1.35873,1.3644 -2.64148,2.48073 -2.85057,2.48073 -0.20909,0 -1.95224,-1.55667 -3.87366,-3.45927 z m 6.14785,-1.47665 c 0.10382,-0.27057 -0.7051,-1.26652 -2.45686,-3.02488 l -2.61165,-2.62148 -0.62783,0.62782 c -0.81461,0.81462 -0.68637,1.0408 2.16602,3.82008 2.02405,1.97219 2.31572,2.16904 2.81669,1.90092 0.30735,-0.16449 0.62849,-0.4806 0.71363,-0.70246 z m -24.83688,-6.42831 c 8.10759,-2.32163 14.1605,-8.37608 16.45878,-16.46296 0.79657,-2.80283 0.97371,-7.36656 0.40313,-10.38563 -2.21412,-11.71542 -12.65333,-19.87009 -24.46875,-19.11395 -3.34413,0.21401 -5.41716,0.76133 -8.619097,2.2756 -6.126787,2.89749 -10.414002,7.96899 -12.47738,14.75993 -0.620634,2.04262 -0.70787,2.78735 -0.721571,6.15999 -0.01191,2.93288 0.09953,4.26741 0.473187,5.66619 2.49557,9.34225 9.543299,15.91634 18.898721,17.62866 2.15349,0.39415 7.88397,0.0933 10.05298,-0.52783 z m -8.80815,-4.26084 c -6.146148,-0.95446 -11.416013,-4.86559 -14.062002,-10.43639 -1.29035,-2.71667 -1.719048,-4.63881 -1.740806,-7.80521 -0.02271,-3.30447 0.617768,-5.99201 2.109451,-8.85161 1.358529,-2.60435 5.066738,-6.30826 7.651276,-7.6424 6.596381,-3.40507 14.771911,-2.58674 20.415231,2.04347 2.92912,2.40327 5.33324,6.2027 6.29759,9.95263 0.58576,2.27773 0.583,6.47122 -0.006,8.73125 -0.98299,3.77349 -3.47636,7.76478 -6.23613,9.98255 -1.73628,1.39529 -5.68397,3.34461 -7.55916,3.73262 -2.07822,0.43002 -5.14532,0.56087 -6.86972,0.29309 z m 6.61569,-2.50287 c 5.75054,-1.46176 10.44906,-6.12133 11.94381,-11.84481 0.56558,-2.16557 0.54983,-5.92546 -0.034,-8.12725 -1.48391,-5.59601 -6.17909,-10.2871 -11.78805,-11.7778 -1.88014,-0.49969 -6.32194,-0.49969 -8.20208,0 -5.040261,1.33955 -9.212232,5.12037 -11.188806,10.13977 -1.032699,2.62248 -1.301376,6.86093 -0.606783,9.57219 1.512546,5.90404 6.029245,10.50735 11.795589,12.02175 1.94089,0.50974 6.10586,0.51806 8.08035,0.0161 z m -18.417508,-9.27861 c -0.42379,-0.51064 -0.04718,-1.25264 0.708223,-1.39536 1.130061,-0.2135 1.162266,-0.38993 1.162266,-6.36715 0,-4.10819 0.09008,-5.82561 0.3175,-6.05302 0.396745,-0.39675 4.795959,-0.4315 5.520729,-0.0436 0.48191,0.25791 0.51177,0.60992 0.51177,6.0325 0,6.1593 0.0485,6.39361 1.32292,6.39361 1.25434,0 1.32291,-0.28802 1.32291,-5.55625 0,-3.47486 0.0933,-5.01457 0.3175,-5.23875 0.43246,-0.43246 5.28255,-0.43246 5.715,0 0.21865,0.21864 0.32725,1.68093 0.34881,4.69635 0.0172,2.40837 0.10768,4.73604 0.20104,5.1726 0.15416,0.72097 0.26653,0.79375 1.22546,0.79375 h 1.05574 l 0.13229,-7.40833 c 0.0728,-4.07458 0.22861,-7.55716 0.34634,-7.73906 0.2245,-0.34686 4.76422,-0.48515 5.58514,-0.17013 0.36773,0.14111 0.41852,1.05223 0.41852,7.50823 0,7.67925 0.012,7.76195 1.16226,7.97926 0.75541,0.14272 1.13202,0.88472 0.70823,1.39536 -0.30912,0.37247 -1.86997,0.41905 -14.04133,0.41905 -12.17135,0 -13.732195,-0.0466 -14.041318,-0.41905 z"
         id="path29"
         inkscape:connector-curvature="0" />
      <path
         style="fill:#317a84;stroke-width:0.26458332"
         d="m 132.50841,183.45516 c -1.92142,-1.9026 -3.64511,-3.74256 -3.83041,-4.0888 -0.30321,-0.56655 -0.25341,-0.72463 0.49772,-1.58012 0.62986,-0.71737 0.77495,-1.06117 0.59138,-1.40131 -0.28296,-0.5243 -4.38224,-4.55175 -4.63294,-4.55175 -0.0929,0 -1.00924,0.64016 -2.0362,1.42258 -4.81056,3.66508 -10.71848,5.45336 -16.88565,5.11114 -3.75648,-0.20845 -6.454384,-0.93879 -9.941784,-2.69132 -5.19703,-2.61166 -8.808074,-6.22515 -11.37532,-11.38303 -7.89076,-15.85338 2.171426,-34.51582 19.770214,-36.668 10.73734,-1.31309 21.05753,4.32345 25.85923,14.12343 1.62716,3.32092 2.3554,6.08022 2.56779,9.72934 0.35858,6.16065 -1.3824,11.91614 -5.09772,16.85247 -1.12939,1.50055 -1.39115,2.02132 -1.19694,2.38125 0.13672,0.25338 1.20586,1.39084 2.37588,2.5277 2.27726,2.21273 2.44702,2.26006 3.58719,1.0002 0.27559,-0.30452 0.65344,-0.55368 0.83967,-0.55368 0.47252,0 7.71847,7.05762 7.92991,7.7238 0.1387,0.43704 -0.3128,1.03136 -2.29779,3.02464 -1.35873,1.3644 -2.64148,2.48073 -2.85057,2.48073 -0.20909,0 -1.95224,-1.55667 -3.87366,-3.45927 z m 6.14785,-1.47665 c 0.10382,-0.27057 -0.7051,-1.26652 -2.45686,-3.02488 l -2.61165,-2.62148 -0.62783,0.62782 c -0.81461,0.81462 -0.68637,1.0408 2.16602,3.82008 2.02405,1.97219 2.31572,2.16904 2.81669,1.90092 0.30735,-0.16449 0.62849,-0.4806 0.71363,-0.70246 z m -24.83688,-6.42831 c 8.10759,-2.32163 14.1605,-8.37608 16.45878,-16.46296 0.79657,-2.80283 0.97371,-7.36656 0.40313,-10.38563 -2.21412,-11.71542 -12.65333,-19.87009 -24.46875,-19.11395 -3.34413,0.21401 -5.41716,0.76133 -8.619097,2.2756 -6.126787,2.89749 -10.414002,7.96899 -12.47738,14.75993 -0.620634,2.04262 -0.70787,2.78735 -0.721571,6.15999 -0.01191,2.93288 0.09953,4.26741 0.473187,5.66619 2.49557,9.34225 9.543299,15.91634 18.898721,17.62866 2.15349,0.39415 7.88397,0.0933 10.05298,-0.52783 z m -8.80815,-4.26084 c -6.146148,-0.95446 -11.416013,-4.86559 -14.062002,-10.43639 -1.29035,-2.71667 -1.719048,-4.63881 -1.740806,-7.80521 -0.02271,-3.30447 0.617768,-5.99201 2.109451,-8.85161 1.358529,-2.60435 5.066738,-6.30826 7.651276,-7.6424 6.596381,-3.40507 14.771911,-2.58674 20.415231,2.04347 2.92912,2.40327 5.33324,6.2027 6.29759,9.95263 0.58576,2.27773 0.583,6.47122 -0.006,8.73125 -0.98299,3.77349 -3.47636,7.76478 -6.23613,9.98255 -1.73628,1.39529 -5.68397,3.34461 -7.55916,3.73262 -2.07822,0.43002 -5.14532,0.56087 -6.86972,0.29309 z m 6.61569,-2.50287 c 5.75054,-1.46176 10.44906,-6.12133 11.94381,-11.84481 0.56558,-2.16557 0.54983,-5.92546 -0.034,-8.12725 -1.48391,-5.59601 -6.17909,-10.2871 -11.78805,-11.7778 -1.88014,-0.49969 -6.32194,-0.49969 -8.20208,0 -5.040261,1.33955 -9.212232,5.12037 -11.188806,10.13977 -1.032699,2.62248 -1.301376,6.86093 -0.606783,9.57219 1.512546,5.90404 6.029245,10.50735 11.795589,12.02175 1.94089,0.50974 6.10586,0.51806 8.08035,0.0161 z m -18.417508,-9.27861 c -0.42379,-0.51064 -0.04718,-1.25264 0.708223,-1.39536 1.130061,-0.2135 1.162266,-0.38993 1.162266,-6.36715 0,-4.10819 0.09008,-5.82561 0.3175,-6.05302 0.396745,-0.39675 4.795959,-0.4315 5.520729,-0.0436 0.48191,0.25791 0.51177,0.60992 0.51177,6.0325 0,6.1593 0.0485,6.39361 1.32292,6.39361 1.25434,0 1.32291,-0.28802 1.32291,-5.55625 0,-3.47486 0.0933,-5.01457 0.3175,-5.23875 0.43246,-0.43246 5.28255,-0.43246 5.715,0 0.21865,0.21864 0.32725,1.68093 0.34881,4.69635 0.0172,2.40837 0.10768,4.73604 0.20104,5.1726 0.15416,0.72097 0.26653,0.79375 1.22546,0.79375 h 1.05574 l 0.13229,-7.40833 c 0.0728,-4.07458 0.22861,-7.55716 0.34634,-7.73906 0.2245,-0.34686 4.76422,-0.48515 5.58514,-0.17013 0.36773,0.14111 0.41852,1.05223 0.41852,7.50823 0,7.67925 0.012,7.76195 1.16226,7.97926 0.75541,0.14272 1.13202,0.88472 0.70823,1.39536 -0.30912,0.37247 -1.86997,0.41905 -14.04133,0.41905 -12.17135,0 -13.732195,-0.0466 -14.041318,-0.41905 z m 6.236114,-6.85699 v -5.29167 h -1.190625 -1.190625 l -0.0722,5.01894 c -0.03971,2.76041 -0.01103,5.17833 0.06372,5.37314 0.09149,0.23841 0.504323,0.32757 1.262822,0.27273 l 1.1269,-0.0815 z m 18.062304,-1.53604 0.0707,-6.8277 -1.26127,0.0808 -1.26127,0.0808 -0.071,6.4773 c -0.0391,3.56251 -0.0104,6.63527 0.0637,6.82835 0.0901,0.23488 0.50766,0.3241 1.26161,0.26958 l 1.1269,-0.0815 z"
         id="path27"
         inkscape:connector-curvature="0" />
      <path
         style="fill:#5a5e5e;stroke-width:0.26458332"
         d="m 132.50841,183.45516 c -1.92142,-1.9026 -3.64511,-3.74256 -3.83041,-4.0888 -0.30321,-0.56655 -0.25341,-0.72463 0.49772,-1.58012 0.62986,-0.71737 0.77495,-1.06117 0.59138,-1.40131 -0.28296,-0.5243 -4.38224,-4.55175 -4.63294,-4.55175 -0.0929,0 -1.00924,0.64016 -2.0362,1.42258 -4.81056,3.66508 -10.71848,5.45336 -16.88565,5.11114 -3.75648,-0.20845 -6.454384,-0.93879 -9.941784,-2.69132 -5.19703,-2.61166 -8.808074,-6.22515 -11.37532,-11.38303 -7.89076,-15.85338 2.171426,-34.51582 19.770214,-36.668 10.73734,-1.31309 21.05753,4.32345 25.85923,14.12343 1.62716,3.32092 2.3554,6.08022 2.56779,9.72934 0.35858,6.16065 -1.3824,11.91614 -5.09772,16.85247 -1.12939,1.50055 -1.39115,2.02132 -1.19694,2.38125 0.13672,0.25338 1.20586,1.39084 2.37588,2.5277 2.27726,2.21273 2.44702,2.26006 3.58719,1.0002 0.27559,-0.30452 0.65344,-0.55368 0.83967,-0.55368 0.47252,0 7.71847,7.05762 7.92991,7.7238 0.1387,0.43704 -0.3128,1.03136 -2.29779,3.02464 -1.35873,1.3644 -2.64148,2.48073 -2.85057,2.48073 -0.20909,0 -1.95224,-1.55667 -3.87366,-3.45927 z m 6.14785,-1.47665 c 0.10382,-0.27057 -0.7051,-1.26652 -2.45686,-3.02488 l -2.61165,-2.62148 -0.62783,0.62782 c -0.81461,0.81462 -0.68637,1.0408 2.16602,3.82008 2.02405,1.97219 2.31572,2.16904 2.81669,1.90092 0.30735,-0.16449 0.62849,-0.4806 0.71363,-0.70246 z m -24.45007,-6.27952 c 8.59374,-2.56629 14.96583,-9.41056 16.70579,-17.94372 0.53209,-2.60947 0.53261,-7.06597 0.001,-9.6796 -0.829,-4.07718 -2.89317,-7.99416 -5.91444,-11.2234 -3.15178,-3.36875 -6.70269,-5.57478 -11.0105,-6.84038 -2.40678,-0.70709 -7.33612,-0.96605 -10.05137,-0.52803 -11.975922,1.93192 -20.64578,12.77431 -19.884058,24.86668 0.678919,10.77785 8.197064,19.43999 18.964728,21.85049 2.76125,0.61814 8.26453,0.37121 11.18879,-0.50204 z m -9.07234,-4.67465 c -3.98012,-0.5383 -7.405482,-2.30195 -10.454728,-5.38291 -3.589602,-3.62693 -5.158763,-7.46134 -5.15156,-12.58835 0.0046,-3.29713 0.478685,-5.528 1.71508,-8.0711 4.480815,-9.21641 15.769158,-12.87413 24.947498,-8.08365 3.95216,2.06277 6.92312,5.4703 8.59626,9.85945 0.79474,2.08484 0.83486,2.37139 0.84365,6.0254 0.008,3.31804 -0.0736,4.08673 -0.60388,5.68854 -1.48977,4.50027 -5.07473,8.72295 -9.06712,10.68005 -3.52367,1.72732 -7.19872,2.36304 -10.8252,1.87257 z m 6.49307,-2.23785 c 5.75054,-1.46176 10.44906,-6.12133 11.94381,-11.84481 0.56558,-2.16557 0.54983,-5.92546 -0.034,-8.12725 -1.48391,-5.59601 -6.17909,-10.2871 -11.78805,-11.7778 -1.88014,-0.49969 -6.32194,-0.49969 -8.20208,0 -5.040261,1.33955 -9.212232,5.12037 -11.188806,10.13977 -1.032699,2.62248 -1.301376,6.86093 -0.606783,9.57219 1.512546,5.90404 6.029245,10.50735 11.795589,12.02175 1.94089,0.50974 6.10586,0.51806 8.08035,0.0161 z m -18.417508,-9.27861 c -0.42379,-0.51064 -0.04718,-1.25264 0.708223,-1.39536 1.130061,-0.2135 1.162266,-0.38993 1.162266,-6.36715 0,-4.10819 0.09008,-5.82561 0.3175,-6.05302 0.396745,-0.39675 4.795959,-0.4315 5.520729,-0.0436 0.48191,0.25791 0.51177,0.60992 0.51177,6.0325 0,6.1593 0.0485,6.39361 1.32292,6.39361 1.25434,0 1.32291,-0.28802 1.32291,-5.55625 0,-3.47486 0.0933,-5.01457 0.3175,-5.23875 0.43246,-0.43246 5.28255,-0.43246 5.715,0 0.21865,0.21864 0.32725,1.68093 0.34881,4.69635 0.0172,2.40837 0.10768,4.73604 0.20104,5.1726 0.15416,0.72097 0.26653,0.79375 1.22546,0.79375 h 1.05574 l 0.13229,-7.40833 c 0.0728,-4.07458 0.22861,-7.55716 0.34634,-7.73906 0.2245,-0.34686 4.76422,-0.48515 5.58514,-0.17013 0.36773,0.14111 0.41852,1.05223 0.41852,7.50823 0,7.67925 0.012,7.76195 1.16226,7.97926 0.75541,0.14272 1.13202,0.88472 0.70823,1.39536 -0.30912,0.37247 -1.86997,0.41905 -14.04133,0.41905 -12.17135,0 -13.732195,-0.0466 -14.041318,-0.41905 z m 6.236114,-6.85699 v -5.29167 h -1.190625 -1.190625 l -0.0722,5.01894 c -0.03971,2.76041 -0.01103,5.17833 0.06372,5.37314 0.09149,0.23841 0.504323,0.32757 1.262822,0.27273 l 1.1269,-0.0815 z m 18.062304,-1.53604 0.0707,-6.8277 -1.26127,0.0808 -1.26127,0.0808 -0.071,6.4773 c -0.0391,3.56251 -0.0104,6.63527 0.0637,6.82835 0.0901,0.23488 0.50766,0.3241 1.26161,0.26958 l 1.1269,-0.0815 z"
         id="path25"
         inkscape:connector-curvature="0" />
      <path
         style="fill:#0a0e0e;stroke-width:0.26458332"
         d="m 132.4523,182.96197 c -2.07367,-2.13768 -3.77032,-4.0056 -3.77032,-4.15094 0,-0.14535 0.35719,-0.60647 0.79375,-1.02473 0.43657,-0.41825 0.79375,-0.88936 0.79375,-1.04691 0,-0.15755 -1.12537,-1.40715 -2.50083,-2.77689 -2.83477,-2.82298 -2.5615,-2.77952 -5.03979,-0.80154 -0.7276,0.58072 -2.22075,1.52464 -3.3181,2.0976 -7.17176,3.74459 -15.60489,3.85159 -22.87565,0.29024 -4.685911,-2.29525 -8.249478,-5.65902 -10.887552,-10.27714 -1.155529,-2.02283 -2.73849,-6.38354 -2.73849,-7.54394 0,-0.33295 -0.138668,-0.74404 -0.308151,-0.91353 -0.434371,-0.43436 -0.443103,-7.35434 -0.0098,-7.78762 0.174888,-0.17488 0.319043,-0.62158 0.320344,-0.99266 0.004,-1.12829 1.696752,-5.66896 2.932127,-7.86498 1.616258,-2.87309 6.184417,-7.44125 9.057506,-9.05751 2.196025,-1.23537 6.736686,-2.92817 7.864986,-2.93212 0.37108,-0.001 0.81359,-0.14128 0.98337,-0.31105 0.39335,-0.39336 7.22411,-0.42302 8.06652,-0.035 0.32679,0.15051 1.54667,0.53384 2.71084,0.85184 15.34551,4.19172 22.89442,21.76241 15.46392,35.99355 -0.57296,1.09735 -1.51688,2.5905 -2.0976,3.3181 -1.97798,2.47829 -2.02145,2.20502 0.80154,5.0398 1.36974,1.37545 2.61934,2.50083 2.77689,2.50083 0.15755,0 0.62866,-0.35719 1.04691,-0.79375 0.41826,-0.43657 0.88702,-0.79307 1.04169,-0.79224 0.28822,0.002 7.95415,7.51879 7.95415,7.79987 0,0.2212 -4.95953,5.17009 -5.14134,5.13032 -0.0827,-0.0181 -1.84697,-1.7819 -3.92064,-3.91958 z m 5.50144,0.34438 c 0.72137,-0.67476 1.31158,-1.36657 1.31158,-1.53736 0,-0.33051 -5.09755,-5.50335 -5.58453,-5.66701 -0.32522,-0.1093 -2.88214,2.31105 -2.88214,2.72819 0,0.3182 5.31493,5.70301 5.629,5.70301 0.11798,0 0.80472,-0.55207 1.52609,-1.22683 z m -23.74537,-7.60799 c 10.46963,-3.12639 17.21643,-12.06427 17.19776,-22.78289 -0.0184,-10.58526 -6.59521,-19.54013 -16.68707,-22.72095 -6.5778,-2.07324 -14.58811,-0.94983 -20.168325,2.82851 -1.915206,1.29678 -3.02265,2.31551 -4.719432,4.3414 -4.18585,4.99771 -6.166973,10.82117 -5.778631,16.98611 0.678919,10.77785 8.197064,19.43999 18.964728,21.85049 2.76227,0.61837 8.26446,0.37123 11.19097,-0.50267 z m -9.07452,-4.67402 c -3.98012,-0.5383 -7.405482,-2.30195 -10.454728,-5.38291 -3.589602,-3.62693 -5.158763,-7.46134 -5.15156,-12.58835 0.0061,-4.36403 0.947325,-7.43304 3.283594,-10.70703 1.212773,-1.69954 3.900102,-4.06157 5.972912,-5.24988 0.654844,-0.37541 2.143122,-1.01085 3.307292,-1.41209 1.88695,-0.65034 2.48996,-0.72952 5.55625,-0.72952 3.07027,0 3.66685,0.0786 5.55625,0.73169 3.15267,1.08982 4.78267,2.12806 7.28759,4.64191 1.68957,1.6956 2.50866,2.76975 3.24305,4.25294 2.63884,5.32944 2.70215,11.01104 0.18133,16.27187 -1.1574,2.41542 -3.58698,5.43627 -5.50406,6.84354 -3.62826,2.66339 -8.73232,3.94261 -13.27792,3.32783 z m 7.33168,-2.12813 c 3.67206,-1.11414 6.89417,-3.51392 9.05419,-6.74342 1.95721,-2.92628 2.74256,-5.56427 2.74999,-9.23732 0.005,-2.49418 -0.098,-3.21277 -0.72082,-5.02454 -2.20541,-6.41597 -7.25869,-10.59945 -13.91691,-11.52144 -1.86116,-0.25772 -2.6469,-0.24229 -4.5568,0.0895 -8.172831,1.41989 -14.028053,8.28234 -14.041086,16.45645 -0.01777,11.146 10.794246,19.20818 21.431436,15.98074 z m -18.899536,-9.53069 c -0.433368,-0.43337 -0.108002,-1.02609 0.563257,-1.02609 1.155577,0 1.215234,-0.31943 1.215234,-6.5069 0,-5.11033 0.05428,-5.89273 0.418514,-6.0325 0.691693,-0.26543 4.340861,-0.18089 4.890551,0.11329 0.4819,0.25791 0.51177,0.60993 0.51177,6.0325 0,4.12614 0.09,5.84862 0.3175,6.07611 0.17462,0.17462 0.74612,0.3175 1.27,0.3175 0.52387,0 1.09537,-0.14288 1.27,-0.3175 0.22428,-0.22428 0.3175,-1.76845 0.3175,-5.25927 0,-3.91182 0.0772,-5.00581 0.37023,-5.24903 0.23894,-0.19831 1.24751,-0.28016 2.84427,-0.23084 l 2.47404,0.0764 0.072,5.13935 c 0.0455,3.24491 0.17933,5.26863 0.36313,5.4901 0.1601,0.19292 0.6835,0.35076 1.16311,0.35076 1.80668,0 1.70903,0.43816 1.70903,-7.66883 0,-5.9734 0.0692,-7.40509 0.37023,-7.65489 0.23895,-0.19831 1.24751,-0.28016 2.84427,-0.23083 l 2.47404,0.0764 0.0704,7.38636 c 0.0468,4.90945 0.16857,7.50464 0.36313,7.73907 0.16099,0.19398 0.57953,0.3527 0.93008,0.3527 0.73548,0 1.139,0.73537 0.59317,1.08098 -0.57184,0.36209 -27.051529,0.30907 -27.415486,-0.0549 z m 5.879532,-6.71463 v -5.29167 h -1.190625 -1.190625 l -0.0722,5.01894 c -0.03971,2.76041 -0.01103,5.17833 0.06372,5.37314 0.09149,0.23841 0.504323,0.32757 1.262822,0.27273 l 1.1269,-0.0815 z m 8.995834,0.79375 v -4.49792 h -1.19063 -1.19062 l -0.0731,4.22271 c -0.0402,2.3225 -0.0115,4.38322 0.0637,4.5794 0.0926,0.24119 0.50176,0.3303 1.26377,0.2752 l 1.1269,-0.0815 z m 9.26042,-2.24896 v -6.74688 l -1.38907,-0.08 -1.38906,-0.08 v 6.7166 c 0,3.69414 0.0849,6.80147 0.18859,6.90519 0.10372,0.10373 0.7288,0.15334 1.38906,0.11025 l 1.20048,-0.0784 z"
         id="path23"
         inkscape:connector-curvature="0" />
    </g>
  </g>
</svg>
