<?xml version="1.0" encoding="UTF-8" standalone="no"?>
<!-- Created with Inkscape (http://www.inkscape.org/) -->

<svg
   xmlns:dc="http://purl.org/dc/elements/1.1/"
   xmlns:cc="http://creativecommons.org/ns#"
   xmlns:rdf="http://www.w3.org/1999/02/22-rdf-syntax-ns#"
   xmlns:svg="http://www.w3.org/2000/svg"
   xmlns="http://www.w3.org/2000/svg"
   xmlns:xlink="http://www.w3.org/1999/xlink"
   xmlns:sodipodi="http://sodipodi.sourceforge.net/DTD/sodipodi-0.dtd"
   xmlns:inkscape="http://www.inkscape.org/namespaces/inkscape"
   width="60mm"
   height="60mm"
   viewBox="0 0 60 60"
   version="1.1"
   id="svg8"
   inkscape:version="0.92.4 (5da689c313, 2019-01-14)"
   sodipodi:docname="website.svg">
  <defs
     id="defs2" />
  <sodipodi:namedview
     id="base"
     pagecolor="#ffffff"
     bordercolor="#666666"
     borderopacity="1.0"
     inkscape:pageopacity="0.0"
     inkscape:pageshadow="2"
     inkscape:zoom="0.35"
     inkscape:cx="140.00001"
     inkscape:cy="280.00001"
     inkscape:document-units="mm"
     inkscape:current-layer="layer1"
     showgrid="false"
     inkscape:window-width="1366"
     inkscape:window-height="704"
     inkscape:window-x="0"
     inkscape:window-y="27"
     inkscape:window-maximized="1" />
  <metadata
     id="metadata5">
    <rdf:RDF>
      <cc:Work
         rdf:about="">
        <dc:format>image/svg+xml</dc:format>
        <dc:type
           rdf:resource="http://purl.org/dc/dcmitype/StillImage" />
        <dc:title></dc:title>
      </cc:Work>
    </rdf:RDF>
  </metadata>
  <g
     inkscape:label="Layer 1"
     inkscape:groupmode="layer"
     id="layer1"
     transform="translate(-68.791664,-132.67857)">
    <image
       sodipodi:absref="/home/stephen/Downloads/website-icons-download-for-free-in-png-and-svg-3335.png"
       xlink:href="Downloads/website-icons-download-for-free-in-png-and-svg-3335.png"
       width="60"
       height="60"
       preserveAspectRatio="none"
       id="image18"
       x="68.791664"
       y="132.67857" />
    <g
       id="g23">
      <path
         style="fill:#fefefe;stroke-width:0.0375"
         d="m 68.791664,162.67857 v -30 h 30 29.999996 v 30 30 h -29.999996 -30 z"
         id="path39"
         inkscape:connector-curvature="0" />
      <path
         style="fill:#a0d0f7;stroke-width:0.0375"
         d="m 97.947914,187.70659 c -0.831508,-0.041 -1.625893,-0.10668 -2.2875,-0.18922 -4.523263,-0.56435 -8.856582,-2.40027 -12.43125,-5.26682 -2.8724,-2.30339 -5.213655,-5.20314 -6.825143,-8.45323 -0.385575,-0.77764 -0.804115,-1.72165 -0.977688,-2.20517 -0.04422,-0.12319 -0.04368,-0.14744 0.0039,-0.17755 0.03117,-0.0197 0.611067,-0.0351 1.333712,-0.0355 1.459936,-6.3e-4 1.31716,-0.0364 1.494594,0.37443 0.36888,0.85415 1.071976,2.1545 1.657568,3.06562 l 0.19884,0.30938 h 3.867599 3.867599 l -0.0183,-0.10313 c -0.01006,-0.0567 -0.113403,-0.47437 -0.229645,-0.92812 -0.256122,-0.99977 -0.555398,-2.43299 -0.540307,-2.5875 l 0.01099,-0.1125 1.23903,-0.01 c 0.953607,-0.008 1.25292,0.001 1.299331,0.0375 0.03889,0.0306 0.102844,0.25372 0.180138,0.62862 0.131547,0.63804 0.502834,2.13896 0.667908,2.7 l 0.10482,0.35625 h 3.466886 3.466887 l 0.0097,-1.83551 c 0.0075,-1.41121 0.02049,-1.84234 0.05625,-1.86505 0.02558,-0.0162 0.578076,-0.0295 1.227764,-0.0295 0.649687,0 1.202181,0.0133 1.227763,0.0295 0.0358,0.0227 0.0488,0.45384 0.0563,1.86505 l 0.01,1.83551 h 3.46689 3.46689 l 0.10482,-0.35625 c 0.16507,-0.56104 0.53636,-2.06196 0.66791,-2.7 0.0773,-0.3749 0.14124,-0.59807 0.18013,-0.62862 0.0464,-0.0365 0.34573,-0.0451 1.29933,-0.0375 l 1.23903,0.01 0.011,0.1125 c 0.0151,0.15451 -0.28418,1.58773 -0.54031,2.5875 -0.11624,0.45375 -0.21959,0.87148 -0.22967,0.9283 l -0.0183,0.1033 3.87496,-0.01 3.87495,-0.01 0.24955,-0.39375 c 0.53542,-0.84483 1.26828,-2.20801 1.59267,-2.9625 0.17662,-0.41079 0.0341,-0.37508 1.49412,-0.37443 0.72265,3.8e-4 1.30254,0.0157 1.33371,0.0355 0.0665,0.042 0.0607,0.0601 -0.28849,0.90147 -1.57333,3.79139 -4.2259,7.30356 -7.49058,9.91799 -3.57876,2.86594 -7.77883,4.66037 -12.33545,5.27015 -1.12359,0.15037 -3.130813,0.24967 -4.090623,0.20238 z m -0.45,-6.39364 v -3.57813 l -2.994747,-0.01 -2.994747,-0.01 0.02482,0.0989 c 0.03858,0.15372 0.41368,0.98663 0.724077,1.60782 1.373433,2.74861 3.006288,4.56577 4.790599,5.3313 0.20625,0.0885 0.391875,0.15562 0.4125,0.14917 0.02466,-0.008 0.0375,-1.23724 0.0375,-3.58984 z m 3.070396,3.42828 c 1.73215,-0.74118 3.39502,-2.59865 4.75274,-5.30891 0.29074,-0.58037 0.69286,-1.47366 0.73001,-1.62167 l 0.0238,-0.095 -2.99475,0.01 -2.99475,0.01 -0.01,3.54375 c -0.005,1.94906 -0.001,3.56601 0.009,3.59321 0.0224,0.0587 0.0735,0.0448 0.48338,-0.13055 z m -8.339146,-0.63229 c 0,-0.0108 -0.122961,-0.17533 -0.273248,-0.36563 -1.117247,-1.41469 -2.117041,-3.20954 -2.970937,-5.33349 l -0.271372,-0.675 -3.267222,-0.01 c -1.796971,-0.005 -3.267221,5.6e-4 -3.267221,0.013 0,0.0529 0.735852,0.81557 1.2375,1.28252 1.672919,1.55722 3.327755,2.71254 5.325,3.71763 1.061755,0.53432 1.871267,0.87545 2.90625,1.22471 0.473083,0.15964 0.58125,0.18678 0.58125,0.14584 z m 13.799996,-0.17558 c 1.25609,-0.43104 2.91993,-1.19514 4.06875,-1.86853 1.15094,-0.67463 2.30991,-1.50249 3.3375,-2.38399 0.56449,-0.48423 1.96875,-1.85978 1.96875,-1.92849 0,-0.0237 -1.15558,-0.0333 -3.26722,-0.0271 l -3.26722,0.01 -0.27137,0.675 c -0.83235,2.07035 -1.87662,3.95125 -2.94181,5.29865 -0.1663,0.21037 -0.30238,0.39229 -0.30238,0.40427 0,0.0355 0.21643,-0.022 0.675,-0.17938 z M 76.444071,168.92522 c -0.05267,-0.0635 -2.67271,-12.3426 -2.656991,-12.45229 0.01065,-0.0743 0.03845,-0.0758 1.660834,-0.0846 0.929328,-0.005 1.673098,0.006 1.702884,0.0247 0.03818,0.0243 0.199866,1.02974 0.581434,3.61546 0.290703,1.96997 0.538919,3.59213 0.551592,3.6048 0.0284,0.0284 -0.02292,0.23747 0.933977,-3.80466 0.537084,-2.26875 0.813754,-3.37144 0.853863,-3.40313 0.06945,-0.0549 2.353684,-0.0679 2.438846,-0.014 0.02952,0.0187 0.395692,1.46928 0.891477,3.53153 0.46276,1.92488 0.849436,3.50783 0.859279,3.51767 0.0098,0.01 0.02402,0.0109 0.03149,0.002 0.0075,-0.009 0.25434,-1.58501 0.548581,-3.50313 0.405299,-2.6421 0.549186,-3.49886 0.593571,-3.53437 0.09188,-0.0735 3.280506,-0.0674 3.34176,0.006 0.03476,0.0419 -0.236361,1.37576 -1.270143,6.24896 -0.722885,3.40765 -1.333396,6.21868 -1.356692,6.24675 -0.06442,0.0776 -2.928969,0.0752 -2.993482,-0.003 -0.02447,-0.0295 -0.432314,-1.59464 -0.906319,-3.47812 -1.049425,-4.16995 -0.935066,-3.74222 -0.975745,-3.64952 -0.0181,0.0412 -0.43099,1.65281 -0.91753,3.58125 -0.48654,1.92844 -0.90198,3.52734 -0.9232,3.55312 -0.0606,0.0736 -2.928159,0.0674 -2.98949,-0.006 z m 17.515476,0.02 c -0.07522,-0.0477 -2.712217,-12.45695 -2.660392,-12.5194 0.06195,-0.0746 3.303485,-0.0681 3.365641,0.007 0.02465,0.0297 0.281924,1.66235 0.571724,3.62812 0.2898,1.96577 0.533262,3.58116 0.541026,3.58976 0.0078,0.009 0.01987,0.009 0.0269,0 0.007,-0.009 0.394452,-1.62462 0.860936,-3.59115 0.466484,-1.96654 0.867797,-3.5992 0.891808,-3.62813 0.06497,-0.0783 2.404307,-0.0779 2.4693,4.3e-4 0.0242,0.0292 0.42213,1.62596 0.88428,3.54843 0.46214,1.92248 0.8478,3.50295 0.85701,3.51216 0.0267,0.0267 0.0355,-0.0272 0.58628,-3.60343 0.28872,-1.87471 0.54392,-3.43143 0.56711,-3.45937 0.0598,-0.0721 3.30333,-0.0755 3.36304,-0.004 0.0552,0.0666 -2.56483,12.43905 -2.64831,12.50585 -0.0886,0.0709 -2.90609,0.0675 -2.97593,-0.004 -0.0273,-0.0277 -0.45319,-1.6567 -0.946522,-3.61991 -0.493329,-1.9632 -0.90963,-3.55629 -0.925111,-3.54018 -0.01548,0.0161 -0.429767,1.62225 -0.920636,3.56921 -0.490869,1.94696 -0.915306,3.56274 -0.943193,3.59062 -0.04085,0.0409 -0.328799,0.0506 -1.4824,0.0501 -0.787433,-3e-4 -1.454586,-0.0151 -1.482563,-0.0328 z m 17.499303,-0.0135 c -0.0909,-0.0714 -2.71231,-12.42743 -2.65202,-12.50009 0.0612,-0.0737 3.30389,-0.0797 3.36396,-0.006 0.0211,0.0258 0.26901,1.61625 0.55097,3.53438 0.28196,1.91812 0.52619,3.53813 0.54274,3.6 0.0203,0.0759 0.037,0.0942 0.0514,0.0563 0.0117,-0.0309 0.40061,-1.65753 0.86424,-3.61465 0.49823,-2.10318 0.86337,-3.57134 0.89289,-3.59005 0.085,-0.0539 2.36931,-0.0407 2.43866,0.0141 0.0399,0.0316 0.33067,1.18027 0.88979,3.51563 0.45675,1.90781 0.84025,3.49406 0.85221,3.525 0.012,0.0309 0.0281,0.0394 0.0358,0.0188 0.008,-0.0206 0.25754,-1.61348 0.55511,-3.53967 0.36745,-2.37846 0.55706,-3.51232 0.59095,-3.5338 0.0274,-0.0174 0.7887,-0.0319 1.6917,-0.0322 1.49309,-5.2e-4 1.64396,0.005 1.6656,0.0615 0.0319,0.0832 -2.58126,12.42274 -2.64446,12.48733 -0.0697,0.0713 -2.88694,0.0748 -2.97628,0.004 -0.0385,-0.0307 -0.36693,-1.27301 -0.94912,-3.59062 -0.77255,-3.07538 -0.95347,-3.75207 -0.95703,-3.57938 -0.002,0.11199 -1.79897,7.11508 -1.83721,7.16117 -0.0394,0.0475 -0.25721,0.0557 -1.47823,0.0557 -1.08878,0 -1.44629,-0.0112 -1.49164,-0.0469 z M 75.430265,153.94254 c -0.0662,-0.0419 -0.06193,-0.0553 0.286887,-0.90147 0.532434,-1.29163 1.401555,-2.9126 2.244024,-4.18528 1.585409,-2.39501 3.714228,-4.62842 6.072732,-6.37112 1.698059,-1.25469 3.730342,-2.37351 5.720256,-3.14913 4.605753,-1.79521 9.638116,-2.17111 14.524466,-1.08493 1.43651,0.31932 3.17888,0.89308 4.54428,1.49644 5.3469,2.36272 9.7583,6.57992 12.35675,11.81277 0.38534,0.776 0.80082,1.71346 0.97734,2.20517 0.0442,0.12319 0.0437,0.14744 -0.004,0.17755 -0.0312,0.0197 -0.61106,0.0351 -1.33371,0.0355 -1.4599,6.5e-4 -1.31699,0.0365 -1.49483,-0.37443 -0.34013,-0.78585 -1.04209,-2.09563 -1.56761,-2.925 l -0.27325,-0.43125 -3.87528,-0.01 -3.87528,-0.01 0.0183,0.1033 c 0.0101,0.0568 0.11343,0.47455 0.22967,0.9283 0.25613,0.99977 0.5554,2.43299 0.54031,2.5875 l -0.011,0.1125 -1.23903,0.01 c -0.9536,0.008 -1.25292,-0.001 -1.29933,-0.0375 -0.0389,-0.0306 -0.10284,-0.25372 -0.18013,-0.62862 -0.13155,-0.63805 -0.50284,-2.13896 -0.66791,-2.7 l -0.10482,-0.35625 h -3.46689 -3.46689 l -0.01,1.83551 c -0.007,1.41121 -0.0205,1.84234 -0.0563,1.86505 -0.02559,0.0163 -0.578078,0.0295 -1.227766,0.0295 -0.649687,0 -1.202181,-0.0133 -1.227764,-0.0295 -0.03576,-0.0227 -0.04876,-0.45384 -0.05625,-1.86505 l -0.0097,-1.83551 h -3.466887 -3.466886 l -0.104819,0.35625 c -0.165075,0.56104 -0.536362,2.06195 -0.667909,2.7 -0.07729,0.3749 -0.141244,0.59807 -0.180138,0.62862 -0.04641,0.0365 -0.345724,0.0451 -1.299331,0.0375 l -1.23903,-0.01 -0.01099,-0.1125 c -0.01509,-0.15451 0.284185,-1.58773 0.540307,-2.5875 0.116242,-0.45375 0.219594,-0.87149 0.229671,-0.9283 l 0.01832,-0.1033 -3.875278,0.01 -3.875278,0.01 -0.273255,0.43125 c -0.528484,0.83405 -1.230994,2.14463 -1.567885,2.925 -0.177366,0.41084 -0.03461,0.37508 -1.494555,0.37443 -0.722645,-3.4e-4 -1.302542,-0.0157 -1.333712,-0.0355 z m 13.516408,-6.90147 c 0.857338,-2.15445 1.878523,-3.99559 3.012404,-5.43121 0.152024,-0.19249 0.266189,-0.36019 0.253698,-0.37268 -0.03337,-0.0334 -0.950181,0.27844 -1.746111,0.59385 -0.803573,0.31844 -2.379817,1.09634 -3.1125,1.53606 -1.131223,0.67891 -2.215054,1.45933 -3.20625,2.30869 -0.567421,0.48622 -1.96875,1.85868 -1.96875,1.92819 0,0.0248 1.107019,0.0343 3.268103,0.0279 l 3.268104,-0.01 z m 8.560808,-2.97918 c 0.0056,-2.07166 -0.0045,-3.57454 -0.02415,-3.59415 -0.05352,-0.0535 -0.805105,0.284 -1.241665,0.55762 -1.481111,0.9283 -2.818421,2.57612 -3.984349,4.90946 -0.310397,0.62119 -0.685496,1.4541 -0.724077,1.60782 l -0.02482,0.0989 2.994747,-0.01 2.994747,-0.01 z m 8.543519,3.48437 c -0.0364,-0.14491 -0.43728,-1.03723 -0.71792,-1.59792 -1.40486,-2.80668 -3.04915,-4.62313 -4.86458,-5.37387 -0.18118,-0.0749 -0.34572,-0.12616 -0.36563,-0.11385 -0.0411,0.0254 -0.0522,7.11446 -0.0112,7.15545 0.0138,0.0137 1.36558,0.025 3.00407,0.025 h 2.97906 z m 9.35316,0.0724 c 0,-0.0528 -0.73675,-0.81621 -1.2375,-1.28232 -1.24286,-1.15691 -2.52504,-2.12443 -3.9375,-2.97122 -0.53146,-0.31861 -1.85393,-0.99524 -2.48757,-1.27273 -0.88817,-0.38897 -2.32231,-0.90397 -2.37383,-0.85246 -0.011,0.011 0.10875,0.18154 0.26602,0.37908 1.06579,1.33876 2.19841,3.37897 2.98423,5.37559 0.10341,0.26272 0.20411,0.51565 0.22378,0.56206 l 0.0358,0.0844 h 3.2633 c 1.79482,0 3.2633,-0.0101 3.2633,-0.0224 z"
         id="path37"
         inkscape:connector-curvature="0" />
      <path
         style="fill:#9aa4d7;stroke-width:0.0375"
         d="m 97.066664,187.61217 c -6.800828,-0.48399 -13.057618,-3.69721 -17.441499,-8.95722 -0.834328,-1.00107 -1.7636,-2.32691 -2.432195,-3.47013 -0.671965,-1.14899 -1.83526,-3.66869 -1.715055,-3.71481 0.02502,-0.01 0.618493,-0.013 1.318823,-0.008 l 1.273327,0.01 0.0458,0.0937 c 0.02519,0.0516 0.239455,0.49031 0.476144,0.975 0.549716,1.1257 1.329095,2.47024 1.516172,2.61563 0.04736,0.0368 0.882219,0.0468 3.887526,0.0463 2.104965,-3.8e-4 3.849247,-0.0146 3.876184,-0.0316 0.0389,-0.0247 0.01836,-0.14603 -0.09991,-0.59005 -0.262254,-0.98464 -0.680318,-2.86242 -0.680318,-3.05572 0,-0.0711 0.03305,-0.0728 1.263201,-0.0631 l 1.263202,0.01 0.157938,0.73125 c 0.303654,1.40591 0.700226,2.87849 0.795289,2.95313 0.08521,0.0669 6.871015,0.0687 6.93787,0.002 0.03377,-0.0338 0.045,-0.50167 0.045,-1.875 v -1.83 h 1.2375 1.237497 v 1.83 c 0,1.37333 0.0112,1.84123 0.045,1.875 0.0669,0.0669 6.85267,0.065 6.93788,-0.002 0.0951,-0.0746 0.49163,-1.54722 0.79528,-2.95313 l 0.15794,-0.73125 1.2632,-0.01 c 1.20939,-0.009 1.2632,-0.007 1.2632,0.0598 0,0.19237 -0.38696,1.93725 -0.66184,2.98435 -0.13127,0.50003 -0.15623,0.64077 -0.11795,0.66505 0.0267,0.0169 1.77482,0.0311 3.88471,0.0314 l 3.83617,5.6e-4 0.0826,-0.0902 c 0.24474,-0.2672 1.04361,-1.66469 1.53478,-2.68483 0.20357,-0.42281 0.39106,-0.81094 0.41664,-0.8625 l 0.0465,-0.0937 1.27333,-0.01 c 0.70033,-0.005 1.29386,-0.002 1.31896,0.008 0.0841,0.0323 -0.53037,1.46361 -1.12778,2.62726 -2.41653,4.70697 -6.35354,8.59678 -11.08536,10.95247 -2.98956,1.48831 -6.08747,2.32908 -9.45075,2.56491 -0.628752,0.0441 -2.7422,0.0425 -3.374997,-0.003 z m 0.46875,-6.2961 v -3.61875 l -3.01665,-0.01 c -1.659158,-0.005 -3.030766,0.005 -3.048018,0.0218 -0.0383,0.0383 0.211656,0.63441 0.624555,1.48946 1.276,2.64239 2.81494,4.48756 4.483784,5.376 0.417532,0.22228 0.787807,0.3766 0.881329,0.36731 0.07443,-0.007 0.075,-0.0349 0.075,-3.62619 z m 2.823706,3.56194 c 1.89576,-0.72054 3.69823,-2.71635 5.12891,-5.67906 0.4129,-0.85505 0.66285,-1.45116 0.62455,-1.48946 -0.0172,-0.0173 -1.38886,-0.027 -3.04802,-0.0218 l -3.01665,0.01 -0.01,3.58125 c -0.005,1.96969 -0.002,3.60234 0.008,3.62813 0.0245,0.0644 0.0816,0.0591 0.31268,-0.0287 z m -8.03524,-0.71038 c -0.01222,-0.0198 -0.236805,-0.32242 -0.499088,-0.67257 -1.115243,-1.48886 -1.948854,-3.00992 -2.786943,-5.08524 l -0.287733,-0.7125 -3.322976,-0.01 c -2.295506,-0.007 -3.322976,0.003 -3.322976,0.0297 0,0.0564 0.679024,0.7644 1.252685,1.30617 2.401668,2.26819 5.238536,3.9684 8.366065,5.014 0.489682,0.16371 0.642166,0.1967 0.600966,0.13004 z m 13.4333,-0.0956 c 3.00762,-0.95237 6.11874,-2.80903 8.48354,-5.06283 0.55096,-0.52511 1.23844,-1.24313 1.23844,-1.29347 0,-0.0249 -1.12241,-0.0343 -3.32297,-0.028 l -3.32298,0.01 -0.28773,0.7125 c -0.83653,2.07146 -1.67378,3.59916 -2.78694,5.08524 -0.26229,0.35015 -0.48688,0.65281 -0.49909,0.67257 -0.0377,0.061 0.0665,0.041 0.49773,-0.0956 z M 76.453888,168.89419 c -0.04506,-0.0711 -2.663751,-12.3774 -2.64528,-12.43124 0.01254,-0.0366 0.382099,-0.0469 1.678291,-0.0469 1.550158,0 1.663609,0.004 1.682949,0.0656 0.0114,0.0361 0.25729,1.66876 0.546411,3.62813 0.289121,1.95937 0.534448,3.58601 0.545172,3.61474 0.01072,0.0287 0.02707,0.0447 0.03633,0.0354 0.0093,-0.009 0.40497,-1.64942 0.879362,-3.64482 0.474392,-1.99539 0.872417,-3.64399 0.884499,-3.66354 0.01311,-0.0212 0.511056,-0.0355 1.234493,-0.0355 1.106649,0 1.214661,0.006 1.23699,0.0638 0.01346,0.0351 0.403923,1.64154 0.867705,3.56994 0.463782,1.9284 0.851141,3.51409 0.860797,3.52374 0.0097,0.01 0.0258,0.009 0.03587,-7.5e-4 0.01007,-0.0101 0.263767,-1.61011 0.563771,-3.55564 0.300004,-1.94553 0.554324,-3.55167 0.565155,-3.56919 0.01083,-0.0175 0.761725,-0.0319 1.668655,-0.0319 1.386916,0 1.652199,0.008 1.66932,0.0531 0.02097,0.0546 -2.545874,12.23657 -2.610174,12.38757 l -0.03593,0.0844 h -1.458713 c -1.122852,0 -1.466965,-0.0108 -1.494557,-0.0469 -0.01972,-0.0258 -0.436794,-1.64156 -0.926843,-3.59062 -0.490048,-1.94906 -0.905162,-3.56906 -0.922474,-3.6 -0.02798,-0.05 -0.0337,-0.05 -0.05147,0 -0.011,0.0309 -0.417492,1.63406 -0.903325,3.5625 -0.485833,1.92844 -0.899484,3.54422 -0.919225,3.59062 l -0.03589,0.0844 h -1.461091 c -1.128031,0 -1.467861,-0.0107 -1.490793,-0.0469 z m 17.465603,-0.0937 c -0.114658,-0.42923 -2.625279,-12.32065 -2.607365,-12.34964 0.01264,-0.0204 0.699113,-0.0347 1.670055,-0.0347 h 1.648591 l 0.03529,0.0844 c 0.01941,0.0464 0.270431,1.68435 0.557825,3.63987 0.287393,1.95553 0.532713,3.56569 0.545154,3.57813 0.01244,0.0124 0.02979,0.0155 0.03855,0.007 0.0088,-0.009 0.398593,-1.62735 0.866296,-3.59687 0.467704,-1.96952 0.866131,-3.61048 0.885393,-3.64658 0.03223,-0.0604 0.130226,-0.0656 1.229112,-0.0656 0.911199,0 1.20256,0.0111 1.229848,0.0469 0.0197,0.0258 0.4036,1.58124 0.85318,3.45658 0.93288,3.89129 0.87902,3.67836 0.91949,3.63541 0.0169,-0.0179 0.26982,-1.59356 0.56202,-3.50137 0.2922,-1.90781 0.54666,-3.50672 0.56545,-3.55312 l 0.0342,-0.0844 h 1.64859 c 0.96082,0 1.65747,0.0144 1.66987,0.0344 0.0202,0.0326 -2.58579,12.39268 -2.62684,12.45909 -0.0107,0.0173 -0.68454,0.0315 -1.49743,0.0315 h -1.47799 l -0.0563,-0.19688 c -0.0309,-0.10828 -0.44458,-1.73926 -0.919199,-3.6244 -0.474616,-1.88514 -0.871171,-3.43576 -0.881234,-3.44583 -0.03451,-0.0345 -0.08825,0.16853 -0.975742,3.68586 -0.489183,1.93875 -0.89722,3.53766 -0.90675,3.55312 -0.0095,0.0155 -0.682243,0.0281 -1.494919,0.0281 h -1.477591 z m 17.529639,0.1051 c -0.0458,-0.074 -2.64959,-12.38584 -2.63018,-12.43641 0.0171,-0.0446 0.28225,-0.0531 1.66932,-0.0531 1.00697,0 1.65758,0.0139 1.6711,0.0358 0.0122,0.0197 0.25774,1.63548 0.54571,3.59062 0.28797,1.95515 0.53404,3.59701 0.54683,3.64857 0.022,0.0888 0.025,0.0898 0.0568,0.0188 0.0185,-0.0413 0.41249,-1.67087 0.87559,-3.62139 0.46311,-1.95051 0.85289,-3.57473 0.86619,-3.60937 0.0219,-0.0572 0.13584,-0.063 1.23669,-0.063 0.7419,0 1.22124,0.0141 1.23498,0.0363 0.0124,0.02 0.4027,1.61889 0.86744,3.55313 0.46474,1.93423 0.8597,3.53189 0.87769,3.55034 0.0189,0.0194 0.0414,-0.004 0.0534,-0.0563 0.0114,-0.0494 0.25768,-1.63386 0.54737,-3.52105 0.28968,-1.88719 0.53557,-3.46078 0.54643,-3.49688 0.0184,-0.0612 0.1314,-0.0656 1.68194,-0.0656 1.29626,0 1.66572,0.0103 1.67817,0.0469 0.0124,0.0364 -2.4958,11.93836 -2.60789,12.375 l -0.0265,0.10313 h -1.47833 c -0.92738,0 -1.4868,-0.0137 -1.50109,-0.0368 -0.0125,-0.0203 -0.428,-1.64448 -0.92328,-3.60937 -0.49528,-1.9649 -0.91467,-3.5869 -0.93197,-3.60444 -0.04,-0.0405 0.0635,-0.43197 -0.96034,3.6319 -0.48847,1.93875 -0.90492,3.54609 -0.92544,3.57187 -0.0462,0.0581 -2.93497,0.0691 -2.97066,0.0113 z M 75.458125,153.88253 c -0.08306,-0.0831 1.129367,-2.67548 1.735191,-3.71021 3.47402,-5.93351 9.100945,-10.15715 15.685622,-11.77382 1.127256,-0.27676 2.337081,-0.4781 3.737726,-0.62202 0.625333,-0.0642 2.971699,-0.0887 3.736156,-0.039 2.69229,0.1752 5.25276,0.7551 7.72009,1.74845 6.28002,2.52836 11.30352,7.54762 13.85941,13.84776 0.14851,0.36605 0.20331,0.54185 0.1726,0.55363 -0.0248,0.01 -0.618,0.0128 -1.31833,0.007 l -1.27333,-0.01 -0.0458,-0.0937 c -0.0252,-0.0516 -0.23946,-0.49031 -0.47615,-0.975 -0.44914,-0.91974 -0.79449,-1.54151 -1.23409,-2.22187 l -0.26047,-0.40313 h -3.89409 c -2.14174,0 -3.90212,0.013 -3.91194,0.0289 -0.01,0.0159 0.0484,0.28168 0.12941,0.59063 0.27601,1.05273 0.67152,2.83201 0.67152,3.02095 0,0.0711 -0.0331,0.0728 -1.2632,0.0631 l -1.2632,-0.01 -0.15761,-0.73125 c -0.16458,-0.76353 -0.46798,-1.97766 -0.64661,-2.5875 l -0.10435,-0.35625 h -3.50439 -3.50439 l -0.01,1.84688 -0.01,1.84687 h -1.236796 -1.236793 l -0.0097,-1.84687 -0.0097,-1.84688 h -3.504387 -3.504386 l -0.104349,0.35625 c -0.175276,0.59839 -0.480186,1.81656 -0.647657,2.5875 l -0.15885,0.73125 -1.26206,0.01 c -1.229019,0.01 -1.262061,0.008 -1.262061,-0.0631 0,-0.19034 0.430868,-2.12346 0.689921,-3.09539 0.07127,-0.26738 0.121382,-0.49941 0.111365,-0.51562 -0.01002,-0.0162 -1.77055,-0.0295 -3.912295,-0.0295 h -3.894083 l -0.260471,0.40313 c -0.439606,0.68036 -0.784952,1.30213 -1.234093,2.22187 -0.236689,0.48469 -0.450954,0.92344 -0.476145,0.975 l -0.0458,0.0937 -1.294971,0.01 c -0.712234,0.005 -1.304869,-3e-5 -1.316967,-0.0121 z m 13.617946,-7.02896 c 0.840802,-2.07601 1.700025,-3.61838 2.879581,-5.16908 0.213876,-0.28117 0.371497,-0.51701 0.350269,-0.52408 -0.05535,-0.0185 -0.721076,0.19308 -1.333007,0.42356 -2.849229,1.07314 -5.399951,2.66155 -7.597272,4.73105 -0.559637,0.52708 -1.271478,1.26856 -1.271478,1.32441 0,0.0275 1.012023,0.0366 3.322684,0.03 l 3.322684,-0.01 z m 8.468905,-2.80423 c 0.0083,-3.1353 0.0024,-3.61324 -0.04514,-3.63147 -0.119961,-0.046 -0.984332,0.36039 -1.51073,0.71034 -0.367729,0.24446 -1.041298,0.83252 -1.393519,1.2166 -0.919027,1.00216 -1.76812,2.29717 -2.50029,3.81338 -0.388431,0.80438 -0.659884,1.44243 -0.632512,1.48672 0.01245,0.0201 1.259825,0.0302 3.04685,0.0245 l 3.025775,-0.01 z m 8.575704,3.59535 c 0.0272,-0.0441 -0.24489,-0.6835 -0.63265,-1.4865 -1.3019,-2.69603 -2.89597,-4.58188 -4.59367,-5.43451 -0.42999,-0.21596 -0.7401,-0.33297 -0.81068,-0.30588 -0.0472,0.0181 -0.0545,0.50591 -0.0545,3.61584 0,1.97721 0.0112,3.60618 0.025,3.61993 0.0388,0.0388 6.04246,0.03 6.06652,-0.009 z m 9.35848,-0.006 c 0,-0.0505 -0.66921,-0.74888 -1.22359,-1.27695 -2.19575,-2.09153 -4.85621,-3.74607 -7.73609,-4.81106 -0.62031,-0.22939 -1.18822,-0.40777 -1.24137,-0.38991 -0.0197,0.007 0.1876,0.31053 0.46072,0.67534 1.13657,1.5181 2.05296,3.19479 2.84503,5.20546 0.10156,0.25781 0.20076,0.50672 0.22043,0.55313 l 0.0358,0.0844 h 3.31955 c 2.3458,0 3.31955,-0.0118 3.31955,-0.0404 z"
         id="path35"
         inkscape:connector-curvature="0" />
      <path
         style="fill:#5fabef;stroke-width:0.0375"
         d="m 97.066664,187.61217 c -6.800828,-0.48399 -13.057618,-3.69721 -17.441499,-8.95722 -0.834328,-1.00107 -1.7636,-2.32691 -2.432195,-3.47013 -0.671965,-1.14899 -1.83526,-3.66869 -1.715055,-3.71481 0.02502,-0.01 0.618493,-0.013 1.318823,-0.008 l 1.273327,0.01 0.0458,0.0937 c 0.02519,0.0516 0.239455,0.49031 0.476144,0.975 0.549716,1.1257 1.329095,2.47024 1.516172,2.61563 0.04736,0.0368 0.882219,0.0468 3.887526,0.0463 2.104965,-3.8e-4 3.849247,-0.0146 3.876184,-0.0316 0.0389,-0.0247 0.01836,-0.14603 -0.09991,-0.59005 -0.262254,-0.98464 -0.680318,-2.86242 -0.680318,-3.05572 0,-0.0711 0.03305,-0.0728 1.263201,-0.0631 l 1.263202,0.01 0.157938,0.73125 c 0.303654,1.40591 0.700226,2.87849 0.795289,2.95313 0.08521,0.0669 6.871015,0.0687 6.93787,0.002 0.03377,-0.0338 0.045,-0.50167 0.045,-1.875 v -1.83 h 1.2375 1.237497 v 1.83 c 0,1.37333 0.0112,1.84123 0.045,1.875 0.0669,0.0669 6.85267,0.065 6.93788,-0.002 0.0951,-0.0746 0.49163,-1.54722 0.79528,-2.95313 l 0.15794,-0.73125 1.2632,-0.01 c 1.20939,-0.009 1.2632,-0.007 1.2632,0.0598 0,0.19237 -0.38696,1.93725 -0.66184,2.98435 -0.13127,0.50003 -0.15623,0.64077 -0.11795,0.66505 0.0267,0.0169 1.77482,0.0311 3.88471,0.0314 l 3.83617,5.6e-4 0.0826,-0.0902 c 0.24474,-0.2672 1.04361,-1.66469 1.53478,-2.68483 0.20357,-0.42281 0.39106,-0.81094 0.41664,-0.8625 l 0.0465,-0.0937 1.27333,-0.01 c 0.70033,-0.005 1.29386,-0.002 1.31896,0.008 0.0841,0.0323 -0.53037,1.46361 -1.12778,2.62726 -2.41653,4.70697 -6.35354,8.59678 -11.08536,10.95247 -2.98956,1.48831 -6.08747,2.32908 -9.45075,2.56491 -0.628752,0.0441 -2.7422,0.0425 -3.374997,-0.003 z m 0.46875,-6.2961 v -3.61875 l -3.01665,-0.01 c -1.659158,-0.005 -3.030766,0.005 -3.048018,0.0218 -0.0383,0.0383 0.211656,0.63441 0.624555,1.48946 1.276,2.64239 2.81494,4.48756 4.483784,5.376 0.417532,0.22228 0.787807,0.3766 0.881329,0.36731 0.07443,-0.007 0.075,-0.0349 0.075,-3.62619 z m 2.823706,3.56194 c 1.89576,-0.72054 3.69823,-2.71635 5.12891,-5.67906 0.4129,-0.85505 0.66285,-1.45116 0.62455,-1.48946 -0.0172,-0.0173 -1.38886,-0.027 -3.04802,-0.0218 l -3.01665,0.01 -0.01,3.58125 c -0.005,1.96969 -0.002,3.60234 0.008,3.62813 0.0245,0.0644 0.0816,0.0591 0.31268,-0.0287 z m -8.03524,-0.71038 c -0.01222,-0.0198 -0.236805,-0.32242 -0.499088,-0.67257 -1.115243,-1.48886 -1.948854,-3.00992 -2.786943,-5.08524 l -0.287733,-0.7125 -3.322976,-0.01 c -2.295506,-0.007 -3.322976,0.003 -3.322976,0.0297 0,0.0564 0.679024,0.7644 1.252685,1.30617 2.401668,2.26819 5.238536,3.9684 8.366065,5.014 0.489682,0.16371 0.642166,0.1967 0.600966,0.13004 z m 13.4333,-0.0956 c 3.00762,-0.95237 6.11874,-2.80903 8.48354,-5.06283 0.55096,-0.52511 1.23844,-1.24313 1.23844,-1.29347 0,-0.0249 -1.12241,-0.0343 -3.32297,-0.028 l -3.32298,0.01 -0.28773,0.7125 c -0.83653,2.07146 -1.67378,3.59916 -2.78694,5.08524 -0.26229,0.35015 -0.48688,0.65281 -0.49909,0.67257 -0.0377,0.061 0.0665,0.041 0.49773,-0.0956 z M 76.460687,168.85669 c -0.04743,-0.1379 -2.631098,-12.35133 -2.617845,-12.375 0.0087,-0.0155 0.749344,-0.0281 1.645962,-0.0281 1.358537,0 1.633553,0.009 1.650252,0.0522 0.01102,0.0287 0.260704,1.68237 0.554853,3.67478 0.294148,1.99241 0.546445,3.63419 0.56066,3.64841 0.01421,0.0142 0.03987,0.0101 0.05702,-0.009 0.01714,-0.0192 0.406391,-1.62125 0.864992,-3.56 0.458601,-1.93875 0.849942,-3.58828 0.869648,-3.66562 l 0.03583,-0.14063 H 81.2784 c 0.737119,0 1.205021,0.014 1.218951,0.0366 0.01243,0.0201 0.408383,1.64133 0.879883,3.60267 0.4715,1.96135 0.868239,3.57706 0.881643,3.59046 0.0134,0.0134 0.0369,0.004 0.05222,-0.0207 0.01532,-0.0248 0.270079,-1.61899 0.566134,-3.54266 0.296053,-1.92368 0.552184,-3.53557 0.569179,-3.58198 l 0.0309,-0.0844 h 1.632178 c 1.441399,0 1.632178,0.007 1.632178,0.0575 0,0.0591 -2.525282,11.99917 -2.591325,12.25233 l -0.0368,0.14106 -1.468313,-0.01 -1.468312,-0.01 -0.90341,-3.58125 c -0.496876,-1.96969 -0.915985,-3.6136 -0.931355,-3.65315 -0.01894,-0.0487 -0.04024,-0.0596 -0.06607,-0.0338 -0.02097,0.021 -0.442101,1.63833 -0.935847,3.59414 -0.493747,1.95581 -0.907486,3.58679 -0.919421,3.6244 -0.02051,0.0646 -0.101842,0.0684 -1.482851,0.0684 -1.135321,0 -1.464745,-0.0104 -1.477273,-0.0469 z m 17.514126,0.0125 c -0.02,-0.0324 -2.645649,-12.32654 -2.645649,-12.38782 0,-0.0157 0.746577,-0.0241 1.659061,-0.0188 l 1.65906,0.01 0.538358,3.65625 c 0.296097,2.01094 0.553301,3.672 0.571564,3.69125 0.01826,0.0192 0.0427,0.0255 0.0543,0.0139 0.0116,-0.0116 0.41332,-1.67266 0.892702,-3.69125 l 0.871604,-3.67015 h 1.215999 1.216008 l 0.86429,3.59704 c 0.47535,1.97837 0.88314,3.60332 0.90619,3.61101 0.0531,0.0177 0.001,0.32559 0.61229,-3.64555 0.28871,-1.87688 0.53395,-3.45047 0.54497,-3.49688 l 0.02,-0.0844 h 1.65398 1.65397 l -0.0227,0.11331 c -0.0431,0.21522 -2.57886,12.16818 -2.59932,12.25231 l -0.0205,0.0844 h -1.45924 -1.45923 l -0.0354,-0.0844 c -0.0195,-0.0464 -0.43494,-1.67906 -0.923255,-3.62812 -0.48831,-1.94906 -0.902042,-3.5595 -0.919405,-3.57875 -0.01736,-0.0192 -0.04169,-0.0249 -0.05406,-0.0125 -0.01237,0.0124 -0.432091,1.64157 -0.932716,3.62045 -0.500626,1.97888 -0.922096,3.61717 -0.9366,3.64064 -0.03293,0.0533 -2.893484,0.0613 -2.926297,0.008 z m 17.477187,-0.0564 c -0.0653,-0.26036 -2.61034,-12.25542 -2.61034,-12.30305 0,-0.049 0.20958,-0.0561 1.64702,-0.0561 h 1.64703 l 0.0208,0.10313 c 0.0114,0.0567 0.25794,1.71375 0.54777,3.68229 0.28984,1.96854 0.53522,3.58742 0.5453,3.5975 0.0101,0.0101 0.0343,0.002 0.0538,-0.0171 0.0195,-0.0195 0.42377,-1.66878 0.89837,-3.66508 0.47461,-1.9963 0.87281,-3.64563 0.88489,-3.66518 0.0131,-0.0212 0.50534,-0.0355 1.21904,-0.0355 h 1.19708 l 0.0206,0.0844 c 0.0113,0.0464 0.39968,1.66127 0.86303,3.58857 0.46336,1.92731 0.85887,3.5206 0.87892,3.54065 0.0236,0.0236 0.0435,0.0177 0.0564,-0.0167 0.0109,-0.0292 0.26468,-1.6394 0.56387,-3.57815 0.29918,-1.93875 0.55181,-3.54609 0.5614,-3.57187 0.0136,-0.0365 0.37778,-0.0469 1.64765,-0.0469 0.89662,0 1.63733,0.0127 1.64603,0.0281 0.0148,0.0264 -2.5676,12.24877 -2.61301,12.36709 -0.0179,0.0468 -0.23559,0.0548 -1.4847,0.0548 -0.80502,0 -1.46398,-0.004 -1.46434,-0.009 -0.005,-0.0639 -1.83829,-7.27958 -1.85396,-7.29525 -0.0119,-0.0119 -0.0362,-0.006 -0.0541,0.0134 -0.0179,0.0192 -0.44112,1.655 -0.94056,3.635 -0.49944,1.98 -0.91586,3.61266 -0.92535,3.62813 -0.01,0.0155 -0.67258,0.0281 -1.4735,0.0281 h -1.45623 z M 75.458125,153.88253 c -0.08306,-0.0831 1.129367,-2.67548 1.735191,-3.71021 3.47402,-5.93351 9.100945,-10.15715 15.685622,-11.77382 1.127256,-0.27676 2.337081,-0.4781 3.737726,-0.62202 0.625333,-0.0642 2.971699,-0.0887 3.736156,-0.039 2.69229,0.1752 5.25276,0.7551 7.72009,1.74845 6.28002,2.52836 11.30352,7.54762 13.85941,13.84776 0.14851,0.36605 0.20331,0.54185 0.1726,0.55363 -0.0248,0.01 -0.618,0.0128 -1.31833,0.007 l -1.27333,-0.01 -0.0458,-0.0937 c -0.0252,-0.0516 -0.23946,-0.49031 -0.47615,-0.975 -0.44914,-0.91974 -0.79449,-1.54151 -1.23409,-2.22187 l -0.26047,-0.40313 h -3.89409 c -2.14174,0 -3.90212,0.013 -3.91194,0.0289 -0.01,0.0159 0.0484,0.28168 0.12941,0.59063 0.27601,1.05273 0.67152,2.83201 0.67152,3.02095 0,0.0711 -0.0331,0.0728 -1.2632,0.0631 l -1.2632,-0.01 -0.15761,-0.73125 c -0.16458,-0.76353 -0.46798,-1.97766 -0.64661,-2.5875 l -0.10435,-0.35625 h -3.50439 -3.50439 l -0.01,1.84688 -0.01,1.84687 h -1.236796 -1.236793 l -0.0097,-1.84687 -0.0097,-1.84688 h -3.504387 -3.504386 l -0.104349,0.35625 c -0.175276,0.59839 -0.480186,1.81656 -0.647657,2.5875 l -0.15885,0.73125 -1.26206,0.01 c -1.229019,0.01 -1.262061,0.008 -1.262061,-0.0631 0,-0.19034 0.430868,-2.12346 0.689921,-3.09539 0.07127,-0.26738 0.121382,-0.49941 0.111365,-0.51562 -0.01002,-0.0162 -1.77055,-0.0295 -3.912295,-0.0295 h -3.894083 l -0.260471,0.40313 c -0.439606,0.68036 -0.784952,1.30213 -1.234093,2.22187 -0.236689,0.48469 -0.450954,0.92344 -0.476145,0.975 l -0.0458,0.0937 -1.294971,0.01 c -0.712234,0.005 -1.304869,-3e-5 -1.316967,-0.0121 z m 13.617946,-7.02896 c 0.840802,-2.07601 1.700025,-3.61838 2.879581,-5.16908 0.213876,-0.28117 0.371497,-0.51701 0.350269,-0.52408 -0.05535,-0.0185 -0.721076,0.19308 -1.333007,0.42356 -2.849229,1.07314 -5.399951,2.66155 -7.597272,4.73105 -0.559637,0.52708 -1.271478,1.26856 -1.271478,1.32441 0,0.0275 1.012023,0.0366 3.322684,0.03 l 3.322684,-0.01 z m 8.468905,-2.80423 c 0.0083,-3.1353 0.0024,-3.61324 -0.04514,-3.63147 -0.119961,-0.046 -0.984332,0.36039 -1.51073,0.71034 -0.367729,0.24446 -1.041298,0.83252 -1.393519,1.2166 -0.919027,1.00216 -1.76812,2.29717 -2.50029,3.81338 -0.388431,0.80438 -0.659884,1.44243 -0.632512,1.48672 0.01245,0.0201 1.259825,0.0302 3.04685,0.0245 l 3.025775,-0.01 z m 8.575704,3.59535 c 0.0272,-0.0441 -0.24489,-0.6835 -0.63265,-1.4865 -1.3019,-2.69603 -2.89597,-4.58188 -4.59367,-5.43451 -0.42999,-0.21596 -0.7401,-0.33297 -0.81068,-0.30588 -0.0472,0.0181 -0.0545,0.50591 -0.0545,3.61584 0,1.97721 0.0112,3.60618 0.025,3.61993 0.0388,0.0388 6.04246,0.03 6.06652,-0.009 z m 9.35848,-0.006 c 0,-0.0505 -0.66921,-0.74888 -1.22359,-1.27695 -2.19575,-2.09153 -4.85621,-3.74607 -7.73609,-4.81106 -0.62031,-0.22939 -1.18822,-0.40777 -1.24137,-0.38991 -0.0197,0.007 0.1876,0.31053 0.46072,0.67534 1.13657,1.5181 2.05296,3.19479 2.84503,5.20546 0.10156,0.25781 0.20076,0.50672 0.22043,0.55313 l 0.0358,0.0844 h 3.31955 c 2.3458,0 3.31955,-0.0118 3.31955,-0.0404 z"
         id="path33"
         inkscape:connector-curvature="0" />
      <path
         style="fill:#2094f1;stroke-width:0.0375"
         d="m 97.141664,187.5743 c -3.584825,-0.23705 -7.162344,-1.28198 -10.29375,-3.00661 -4.901071,-2.69929 -8.796,-6.99895 -10.979454,-12.12037 -0.223301,-0.52377 -0.364247,-0.88287 -0.364277,-0.92813 -1e-5,-0.0155 0.570743,-0.0281 1.268342,-0.0281 h 1.268361 l 0.271781,0.59062 c 0.477614,1.03794 1.473917,2.7945 1.733469,3.05625 l 0.102259,0.10313 3.856009,-5.6e-4 c 2.148923,-3.8e-4 3.879035,-0.0152 3.908019,-0.0335 0.06101,-0.0386 0.07615,0.0385 -0.214009,-1.09092 -0.189373,-0.73713 -0.56925,-2.46543 -0.56925,-2.58987 0,-0.0227 0.458073,-0.0325 1.228125,-0.0263 l 1.228125,0.01 0.0689,0.3375 c 0.250011,1.22457 0.779636,3.24318 0.876273,3.33982 0.04613,0.0461 0.554347,0.0539 3.512502,0.0539 2.64,0 3.469221,-0.0106 3.503571,-0.045 0.03377,-0.0338 0.045,-0.50167 0.045,-1.875 v -1.83 h 1.2 1.2 v 1.83 c 0,1.37333 0.01123,1.84123 0.045,1.875 0.0344,0.0344 0.86358,0.045 3.50358,0.045 2.95815,0 3.46637,-0.008 3.5125,-0.0539 0.0966,-0.0966 0.62626,-2.11525 0.87627,-3.33982 l 0.0689,-0.3375 1.22813,-0.01 c 0.77005,-0.006 1.22812,0.004 1.22812,0.0263 0,0.12135 -0.3787,1.8433 -0.5689,2.58673 -0.29144,1.1392 -0.27506,1.05561 -0.21435,1.09406 0.029,0.0183 1.75431,0.0332 3.89679,0.0335 3.37084,4.8e-4 3.85475,-0.006 3.92572,-0.0561 0.21916,-0.15351 1.27116,-1.99765 1.81273,-3.17768 l 0.23665,-0.51563 h 1.26818 c 0.69893,0 1.26818,0.0147 1.26818,0.0328 0,0.0848 -0.49485,1.24941 -0.82257,1.93596 -0.93852,1.96613 -2.22169,3.90845 -3.72848,5.64375 -0.54932,0.63263 -1.90878,1.97816 -2.5552,2.52901 -4.16145,3.54627 -9.19826,5.5937 -14.62436,5.94472 -0.687444,0.0445 -2.514868,0.0428 -3.206886,-0.003 z m 0.43125,-6.25823 v -3.65625 l -3.066718,-0.01 c -2.640673,-0.008 -3.069596,-0.002 -3.087438,0.0444 -0.04218,0.10991 0.749979,1.80832 1.279419,2.74311 1.079157,1.9054 2.412592,3.36385 3.787237,4.14232 0.331546,0.18775 0.886163,0.41173 0.99375,0.40133 l 0.09375,-0.009 z m 3.037496,3.49954 c 0.7702,-0.33232 1.39573,-0.78259 2.17502,-1.56559 1.02279,-1.02767 1.79893,-2.15519 2.6348,-3.8277 0.39615,-0.79267 0.77005,-1.66069 0.74427,-1.72787 -0.0178,-0.0463 -0.45139,-0.0525 -3.08737,-0.0442 l -3.06672,0.01 -0.01,3.61875 c -0.0053,1.99031 -7.94e-4,3.642 0.01,3.67042 0.0289,0.0758 0.20635,0.0363 0.59963,-0.13338 z m -8.23232,-0.62142 c -5.93e-4,-0.0258 -0.153515,-0.24093 -0.339831,-0.47812 -1.158449,-1.47475 -2.267604,-3.49803 -3.093879,-5.64375 l -0.158846,-0.4125 -3.359435,-0.01 c -3.214358,-0.009 -3.359435,-0.007 -3.359435,0.058 0,0.0371 0.225284,0.30302 0.500631,0.59083 2.465892,2.57746 5.66276,4.60666 9.043119,5.74008 0.614331,0.20599 0.769561,0.23734 0.767676,0.15507 z m 13.51278,-0.12677 c 2.5045,-0.81741 5.03134,-2.21442 7.16918,-3.96359 0.9809,-0.80257 2.45661,-2.24164 2.45661,-2.39562 0,-0.0646 -0.14497,-0.0671 -3.35676,-0.058 l -3.35676,0.01 -0.29434,0.73125 c -0.85491,2.12391 -1.84116,3.89592 -2.96373,5.325 -0.18632,0.23719 -0.33924,0.45234 -0.33983,0.47812 -0.002,0.0787 0.13147,0.0541 0.68563,-0.12677 z M 76.460687,168.85669 c -0.04743,-0.1379 -2.631098,-12.35133 -2.617845,-12.375 0.0087,-0.0155 0.749344,-0.0281 1.645962,-0.0281 1.358537,0 1.633553,0.009 1.650252,0.0522 0.01102,0.0287 0.260704,1.68237 0.554853,3.67478 0.294148,1.99241 0.546445,3.63419 0.56066,3.64841 0.01421,0.0142 0.03987,0.0101 0.05702,-0.009 0.01714,-0.0192 0.406391,-1.62125 0.864992,-3.56 0.458601,-1.93875 0.849942,-3.58828 0.869648,-3.66562 l 0.03583,-0.14063 H 81.2784 c 0.737119,0 1.205021,0.014 1.218951,0.0366 0.01243,0.0201 0.408383,1.64133 0.879883,3.60267 0.4715,1.96135 0.868239,3.57706 0.881643,3.59046 0.0134,0.0134 0.0369,0.004 0.05222,-0.0207 0.01532,-0.0248 0.270079,-1.61899 0.566134,-3.54266 0.296053,-1.92368 0.552184,-3.53557 0.569179,-3.58198 l 0.0309,-0.0844 h 1.632178 c 1.441399,0 1.632178,0.007 1.632178,0.0575 0,0.0591 -2.525282,11.99917 -2.591325,12.25233 l -0.0368,0.14106 -1.468313,-0.01 -1.468312,-0.01 -0.90341,-3.58125 c -0.496876,-1.96969 -0.915985,-3.6136 -0.931355,-3.65315 -0.01894,-0.0487 -0.04024,-0.0596 -0.06607,-0.0338 -0.02097,0.021 -0.442101,1.63833 -0.935847,3.59414 -0.493747,1.95581 -0.907486,3.58679 -0.919421,3.6244 -0.02051,0.0646 -0.101842,0.0684 -1.482851,0.0684 -1.135321,0 -1.464745,-0.0104 -1.477273,-0.0469 z m 17.514126,0.0125 c -0.02,-0.0324 -2.645649,-12.32654 -2.645649,-12.38782 0,-0.0157 0.746577,-0.0241 1.659061,-0.0188 l 1.65906,0.01 0.538358,3.65625 c 0.296097,2.01094 0.553301,3.672 0.571564,3.69125 0.01826,0.0192 0.0427,0.0255 0.0543,0.0139 0.0116,-0.0116 0.41332,-1.67266 0.892702,-3.69125 l 0.871604,-3.67015 h 1.215999 1.216008 l 0.86429,3.59704 c 0.47535,1.97837 0.88314,3.60332 0.90619,3.61101 0.0531,0.0177 0.001,0.32559 0.61229,-3.64555 0.28871,-1.87688 0.53395,-3.45047 0.54497,-3.49688 l 0.02,-0.0844 h 1.65398 1.65397 l -0.0227,0.11331 c -0.0431,0.21522 -2.57886,12.16818 -2.59932,12.25231 l -0.0205,0.0844 h -1.45924 -1.45923 l -0.0354,-0.0844 c -0.0195,-0.0464 -0.43494,-1.67906 -0.923255,-3.62812 -0.48831,-1.94906 -0.902042,-3.5595 -0.919405,-3.57875 -0.01736,-0.0192 -0.04169,-0.0249 -0.05406,-0.0125 -0.01237,0.0124 -0.432091,1.64157 -0.932716,3.62045 -0.500626,1.97888 -0.922096,3.61717 -0.9366,3.64064 -0.03293,0.0533 -2.893484,0.0613 -2.926297,0.008 z m 17.477187,-0.0564 c -0.0653,-0.26036 -2.61034,-12.25542 -2.61034,-12.30305 0,-0.049 0.20958,-0.0561 1.64702,-0.0561 h 1.64703 l 0.0208,0.10313 c 0.0114,0.0567 0.25794,1.71375 0.54777,3.68229 0.28984,1.96854 0.53522,3.58742 0.5453,3.5975 0.0101,0.0101 0.0343,0.002 0.0538,-0.0171 0.0195,-0.0195 0.42377,-1.66878 0.89837,-3.66508 0.47461,-1.9963 0.87281,-3.64563 0.88489,-3.66518 0.0131,-0.0212 0.50534,-0.0355 1.21904,-0.0355 h 1.19708 l 0.0206,0.0844 c 0.0113,0.0464 0.39968,1.66127 0.86303,3.58857 0.46336,1.92731 0.85887,3.5206 0.87892,3.54065 0.0236,0.0236 0.0435,0.0177 0.0564,-0.0167 0.0109,-0.0292 0.26468,-1.6394 0.56387,-3.57815 0.29918,-1.93875 0.55181,-3.54609 0.5614,-3.57187 0.0136,-0.0365 0.37778,-0.0469 1.64765,-0.0469 0.89662,0 1.63733,0.0127 1.64603,0.0281 0.0148,0.0264 -2.5676,12.24877 -2.61301,12.36709 -0.0179,0.0468 -0.23559,0.0548 -1.4847,0.0548 -0.80502,0 -1.46398,-0.004 -1.46434,-0.009 -0.005,-0.0639 -1.83829,-7.27958 -1.85396,-7.29525 -0.0119,-0.0119 -0.0362,-0.006 -0.0541,0.0134 -0.0179,0.0192 -0.44112,1.655 -0.94056,3.635 -0.49944,1.98 -0.91586,3.61266 -0.92535,3.62813 -0.01,0.0155 -0.67258,0.0281 -1.4735,0.0281 h -1.45623 z M 75.504164,153.83226 c 0,-0.13532 0.71137,-1.7414 1.122788,-2.53494 1.856897,-3.58158 4.467302,-6.60249 7.715909,-8.92928 3.582097,-2.56565 7.670505,-4.09036 12.161303,-4.53536 0.826077,-0.0819 2.860794,-0.11331 3.749996,-0.058 6.05737,0.377 11.59595,2.83193 15.91424,7.05385 2.389,2.33569 4.25773,5.05843 5.54647,8.08125 0.2233,0.52377 0.36425,0.88287 0.36428,0.92813 1e-5,0.0155 -0.57076,0.0281 -1.26837,0.0281 h -1.26839 l -0.25434,-0.55312 c -0.43201,-0.93951 -1.27527,-2.45832 -1.65532,-2.98143 l -0.12954,-0.1783 -3.92764,0.01 -3.92764,0.01 0.004,0.0937 c 0.002,0.0516 0.1067,0.49031 0.2317,0.975 0.18964,0.73528 0.57013,2.46373 0.57013,2.58987 0,0.0227 -0.45793,0.0325 -1.22773,0.0263 l -1.22774,-0.01 -0.0501,-0.24375 c -0.24719,-1.20238 -0.78485,-3.29185 -0.87499,-3.40047 -0.034,-0.041 -0.66652,-0.0482 -3.5523,-0.0404 l -3.51088,0.01 -0.01,1.84687 -0.0097,1.84688 h -1.199293 -1.199293 l -0.0097,-1.84688 -0.0097,-1.84687 -3.510875,-0.01 c -2.885776,-0.008 -3.518249,-6.8e-4 -3.552298,0.0404 -0.09015,0.10862 -0.627803,2.19809 -0.874997,3.40047 l -0.05011,0.24375 -1.227734,0.01 c -0.769801,0.006 -1.227734,-0.004 -1.227734,-0.0263 0,-0.12614 0.380499,-1.85459 0.570133,-2.58987 0.125005,-0.48469 0.229269,-0.92344 0.231699,-0.975 l 0.0044,-0.0937 -3.927635,-0.01 -3.927636,-0.01 -0.12954,0.1783 c -0.387103,0.53281 -1.218921,2.03076 -1.655596,2.98143 l -0.25407,0.55312 H 76.77255 c -0.728195,0 -1.268386,-0.0144 -1.268386,-0.0338 z m 13.266758,-6.16307 c 0.02114,-0.0258 0.139497,-0.29999 0.263009,-0.60937 0.856384,-2.14508 1.872668,-3.9781 3.004328,-5.41875 0.186316,-0.23719 0.33924,-0.45234 0.339831,-0.47813 0.0017,-0.0751 -0.12281,-0.0557 -0.571494,0.0889 -2.553477,0.82321 -5.132769,2.23624 -7.246182,3.96974 -1.021051,0.8375 -2.49375,2.27086 -2.49375,2.42714 0,0.0643 0.151317,0.0673 3.332909,0.0673 2.620824,0 3.341121,-0.01 3.371349,-0.0469 z m 8.801992,-3.62812 v -3.65625 l -0.13125,0.004 c -0.166596,0.006 -0.746421,0.25652 -1.133231,0.49036 -0.529527,0.32011 -0.936421,0.65067 -1.510974,1.22751 -1.054636,1.05884 -1.827861,2.19367 -2.695463,3.95602 -0.430367,0.87421 -0.71017,1.52919 -0.683238,1.59937 0.01784,0.0465 0.446765,0.0527 3.087438,0.0444 l 3.066718,-0.01 z m 8.591676,3.6214 c 0.0426,-0.11108 -0.7589,-1.82596 -1.28949,-2.7589 -0.31976,-0.56222 -0.83964,-1.34391 -1.22207,-1.8375 -0.39061,-0.50414 -1.33482,-1.45346 -1.75744,-1.76694 -0.62469,-0.46338 -1.46668,-0.90018 -1.75393,-0.90988 l -0.13125,-0.004 -0.01,3.61875 c -0.0053,1.99031 -0.0016,3.63984 0.008,3.66562 0.0141,0.037 0.66412,0.0469 3.07647,0.0469 2.61692,0 3.06158,-0.008 3.07918,-0.0536 z m 9.35207,-0.0137 c 0,-0.15368 -1.4749,-1.59198 -2.45639,-2.39542 -2.13982,-1.75165 -4.65668,-3.14307 -7.1694,-3.96352 -0.55412,-0.18093 -0.68744,-0.20559 -0.68563,-0.12685 5.9e-4,0.0258 0.15351,0.24094 0.33983,0.47813 1.12741,1.43524 2.1504,3.27965 3.00002,5.40894 0.1256,0.31477 0.24578,0.5934 0.26706,0.61918 0.0304,0.0369 0.75092,0.0469 3.3716,0.0469 3.1816,0 3.33291,-0.003 3.33291,-0.0673 z"
         id="path31"
         inkscape:connector-curvature="0" />
      <path
         style="fill:#6574c2;stroke-width:0.0375"
         d="m 76.460687,168.85669 c -0.04743,-0.1379 -2.631098,-12.35133 -2.617845,-12.375 0.0087,-0.0155 0.749344,-0.0281 1.645962,-0.0281 1.358537,0 1.633553,0.009 1.650252,0.0522 0.01102,0.0287 0.260704,1.68237 0.554853,3.67478 0.294148,1.99241 0.546445,3.63419 0.56066,3.64841 0.01421,0.0142 0.03987,0.0101 0.05702,-0.009 0.01714,-0.0192 0.406391,-1.62125 0.864992,-3.56 0.458601,-1.93875 0.849942,-3.58828 0.869648,-3.66562 l 0.03583,-0.14063 H 81.2784 c 0.737119,0 1.205021,0.014 1.218951,0.0366 0.01243,0.0201 0.408383,1.64133 0.879883,3.60267 0.4715,1.96135 0.868239,3.57706 0.881643,3.59046 0.0134,0.0134 0.0369,0.004 0.05222,-0.0207 0.01532,-0.0248 0.270079,-1.61899 0.566134,-3.54266 0.296053,-1.92368 0.552184,-3.53557 0.569179,-3.58198 l 0.0309,-0.0844 h 1.632178 c 1.441399,0 1.632178,0.007 1.632178,0.0575 0,0.0591 -2.525282,11.99917 -2.591325,12.25233 l -0.0368,0.14106 -1.468313,-0.01 -1.468312,-0.01 -0.90341,-3.58125 c -0.496876,-1.96969 -0.915985,-3.6136 -0.931355,-3.65315 -0.01894,-0.0487 -0.04024,-0.0596 -0.06607,-0.0338 -0.02097,0.021 -0.442101,1.63833 -0.935847,3.59414 -0.493747,1.95581 -0.907486,3.58679 -0.919421,3.6244 -0.02051,0.0646 -0.101842,0.0684 -1.482851,0.0684 -1.135321,0 -1.464745,-0.0104 -1.477273,-0.0469 z m 17.514126,0.0125 c -0.02,-0.0324 -2.645649,-12.32654 -2.645649,-12.38782 0,-0.0157 0.746577,-0.0241 1.659061,-0.0188 l 1.65906,0.01 0.538358,3.65625 c 0.296097,2.01094 0.553301,3.672 0.571564,3.69125 0.01826,0.0192 0.0427,0.0255 0.0543,0.0139 0.0116,-0.0116 0.41332,-1.67266 0.892702,-3.69125 l 0.871604,-3.67015 h 1.215999 1.216008 l 0.86429,3.59704 c 0.47535,1.97837 0.88314,3.60332 0.90619,3.61101 0.0531,0.0177 0.001,0.32559 0.61229,-3.64555 0.28871,-1.87688 0.53395,-3.45047 0.54497,-3.49688 l 0.02,-0.0844 h 1.65398 1.65397 l -0.0227,0.11331 c -0.0431,0.21522 -2.57886,12.16818 -2.59932,12.25231 l -0.0205,0.0844 h -1.45924 -1.45923 l -0.0354,-0.0844 c -0.0195,-0.0464 -0.43494,-1.67906 -0.923255,-3.62812 -0.48831,-1.94906 -0.902042,-3.5595 -0.919405,-3.57875 -0.01736,-0.0192 -0.04169,-0.0249 -0.05406,-0.0125 -0.01237,0.0124 -0.432091,1.64157 -0.932716,3.62045 -0.500626,1.97888 -0.922096,3.61717 -0.9366,3.64064 -0.03293,0.0533 -2.893484,0.0613 -2.926297,0.008 z m 17.477187,-0.0564 c -0.0653,-0.26036 -2.61034,-12.25542 -2.61034,-12.30305 0,-0.049 0.20958,-0.0561 1.64702,-0.0561 h 1.64703 l 0.0208,0.10313 c 0.0114,0.0567 0.25794,1.71375 0.54777,3.68229 0.28984,1.96854 0.53522,3.58742 0.5453,3.5975 0.0101,0.0101 0.0343,0.002 0.0538,-0.0171 0.0195,-0.0195 0.42377,-1.66878 0.89837,-3.66508 0.47461,-1.9963 0.87281,-3.64563 0.88489,-3.66518 0.0131,-0.0212 0.50534,-0.0355 1.21904,-0.0355 h 1.19708 l 0.0206,0.0844 c 0.0113,0.0464 0.39968,1.66127 0.86303,3.58857 0.46336,1.92731 0.85887,3.5206 0.87892,3.54065 0.0236,0.0236 0.0435,0.0177 0.0564,-0.0167 0.0109,-0.0292 0.26468,-1.6394 0.56387,-3.57815 0.29918,-1.93875 0.55181,-3.54609 0.5614,-3.57187 0.0136,-0.0365 0.37778,-0.0469 1.64765,-0.0469 0.89662,0 1.63733,0.0127 1.64603,0.0281 0.0148,0.0264 -2.5676,12.24877 -2.61301,12.36709 -0.0179,0.0468 -0.23559,0.0548 -1.4847,0.0548 -0.80502,0 -1.46398,-0.004 -1.46434,-0.009 -0.005,-0.0639 -1.83829,-7.27958 -1.85396,-7.29525 -0.0119,-0.0119 -0.0362,-0.006 -0.0541,0.0134 -0.0179,0.0192 -0.44112,1.655 -0.94056,3.635 -0.49944,1.98 -0.91586,3.61266 -0.92535,3.62813 -0.01,0.0155 -0.67258,0.0281 -1.4735,0.0281 h -1.45623 z"
         id="path29"
         inkscape:connector-curvature="0" />
      <path
         style="fill:#4a5bb7;stroke-width:0.0375"
         d="m 76.479164,168.83323 c 0,-0.039 -2.581813,-12.18109 -2.610399,-12.27653 -0.01851,-0.0618 0.07551,-0.0656 1.611142,-0.0656 h 1.630798 l 0.02049,0.10313 c 0.01127,0.0567 0.258769,1.72312 0.549996,3.70312 0.291227,1.98 0.535743,3.6063 0.543369,3.61401 0.0076,0.008 0.03822,0.005 0.06798,-0.007 0.05956,-0.0229 0.03375,0.0807 1.104592,-4.43225 l 0.702944,-2.9625 1.186849,-0.01 c 1.10644,-0.009 1.188172,-0.005 1.206378,0.0563 0.01074,0.0364 0.221602,0.9099 0.468579,1.94115 1.10896,4.63046 1.251822,5.21458 1.283567,5.24813 0.02124,0.0224 0.04813,0.0212 0.07267,-0.003 0.02143,-0.0214 0.283013,-1.62371 0.581301,-3.56062 0.298287,-1.93692 0.551077,-3.55964 0.561754,-3.60604 l 0.01941,-0.0844 h 1.611785 c 1.264298,0 1.611839,0.0101 1.612031,0.0469 1.5e-4,0.0258 -0.585691,2.81015 -1.301835,6.1875 l -1.302082,6.14062 h -1.448267 -1.448268 l -0.911533,-3.62813 c -0.501342,-1.99546 -0.931651,-3.65006 -0.956242,-3.67688 -0.03669,-0.04 -0.05162,-0.04 -0.0832,0 -0.02117,0.0268 -0.447447,1.66876 -0.947283,3.64876 -0.499836,1.98 -0.916593,3.61266 -0.926127,3.62812 -0.02459,0.0399 -2.900407,0.0352 -2.900407,-0.005 z m 17.497836,-0.058 c -0.03194,-0.12727 -2.610336,-12.24273 -2.610336,-12.26555 0,-0.0103 0.734062,-0.0186 1.63125,-0.0186 1.158856,0 1.63125,0.0119 1.63125,0.0411 0,0.0538 1.044644,7.14543 1.072807,7.28281 0.01453,0.0709 0.04147,0.10138 0.08259,0.0935 0.04723,-0.009 0.121449,-0.26585 0.328493,-1.13646 0.147111,-0.61859 0.542968,-2.28487 0.879683,-3.70284 l 0.612209,-2.57812 h 1.193359 c 0.656348,0 1.19336,0.0131 1.19336,0.0292 0,0.10001 1.727935,7.18875 1.760175,7.22099 0.0251,0.0251 0.0523,0.0266 0.0735,0.004 0.0185,-0.0196 0.28148,-1.6468 0.58429,-3.61601 0.30281,-1.96921 0.55863,-3.59343 0.56849,-3.60937 0.0231,-0.0374 3.23878,-0.0382 3.23763,-8.7e-4 -4.8e-4,0.0155 -0.58825,2.79562 -1.30615,6.17812 l -1.30529,6.15 -1.44853,0.01 -1.44854,0.01 -0.0372,-0.14106 c -0.0204,-0.0776 -0.43387,-1.71732 -0.918725,-3.64385 -0.484851,-1.92653 -0.895061,-3.5163 -0.911577,-3.53282 -0.01652,-0.0165 -0.04936,-0.0181 -0.073,-0.003 -0.02363,0.0146 -0.433901,1.57906 -0.91171,3.47656 -0.477809,1.8975 -0.894062,3.5386 -0.925006,3.64688 l -0.05626,0.19687 h -1.437024 -1.437023 l -0.0228,-0.0908 z m 17.50879,0.0439 c -0.0206,-0.0602 -2.56954,-12.04384 -2.5964,-12.20665 l -0.0202,-0.12227 1.62545,0.01 1.62545,0.01 0.54515,3.69326 c 0.46446,3.14663 0.55438,3.69504 0.60757,3.70526 0.035,0.007 0.0712,-0.0178 0.0824,-0.0558 0.011,-0.0373 0.40158,-1.67932 0.86795,-3.64901 0.46638,-1.96969 0.85659,-3.61102 0.86715,-3.6474 0.0179,-0.0617 0.0995,-0.0655 1.20592,-0.0563 l 1.18673,0.01 0.84746,3.525 c 0.46609,1.93875 0.8593,3.57141 0.87379,3.62812 0.0318,0.12437 0.12864,0.13611 0.15473,0.0188 0.0103,-0.0464 0.25579,-1.62843 0.54551,-3.51562 0.28972,-1.88719 0.5366,-3.48609 0.54863,-3.55313 l 0.0219,-0.12187 h 1.62961 c 1.53445,0 1.62846,0.004 1.61005,0.0656 -0.0108,0.0361 -0.59511,2.7825 -1.29858,6.10312 -0.70345,3.32062 -1.2883,6.07567 -1.29964,6.12231 l -0.0206,0.0848 -1.44726,-0.01 -1.44727,-0.01 -0.91259,-3.61875 c -0.50192,-1.99031 -0.93633,-3.64258 -0.96534,-3.6717 -0.0454,-0.0456 -0.0581,-0.0403 -0.0913,0.0375 -0.0333,0.0781 -1.84044,7.19923 -1.84044,7.25211 0,0.0108 -0.65021,0.0196 -1.44492,0.0196 -1.1224,0 -1.44851,-0.0105 -1.46095,-0.0469 z"
         id="path27"
         inkscape:connector-curvature="0" />
      <path
         style="fill:#3e50b3;stroke-width:0.0375"
         d="m 76.50237,168.76294 c -0.01064,-0.0361 -0.594808,-2.77406 -1.298146,-6.08437 -0.703338,-3.31031 -1.287589,-6.04846 -1.298334,-6.08478 -0.01847,-0.0624 0.06819,-0.0655 1.585906,-0.0563 l 1.605443,0.01 0.546092,3.702 c 0.300351,2.03611 0.558656,3.71457 0.574011,3.72993 0.102914,0.10291 0.166072,-0.12186 0.887594,-3.15881 0.406464,-1.71084 0.802014,-3.3764 0.879,-3.70125 l 0.139974,-0.59062 1.168252,7e-5 1.168252,8e-5 0.860163,3.59055 c 0.47309,1.9748 0.867582,3.61254 0.876648,3.63941 0.0091,0.0269 0.05185,0.0437 0.09508,0.0375 0.06625,-0.01 0.08531,-0.0526 0.121338,-0.27386 0.02351,-0.14437 0.276184,-1.77703 0.561501,-3.62812 l 0.518759,-3.36563 h 1.58638 c 1.336975,0 1.586381,0.008 1.586381,0.0526 0,0.0413 -2.488805,11.82481 -2.569051,12.16342 l -0.0201,0.0848 -1.431222,-0.01 -1.431222,-0.01 -0.200989,-0.80625 c -1.051802,-4.2192 -1.642019,-6.49738 -1.687859,-6.51497 -0.02865,-0.011 -0.06705,-0.005 -0.08532,0.0132 -0.01827,0.0183 -0.431628,1.61098 -0.918572,3.53936 -0.486944,1.92837 -0.901823,3.56941 -0.921955,3.64676 l -0.0366,0.14062 h -1.421028 c -1.320988,0 -1.422389,-0.005 -1.440375,-0.0656 z m 16.217442,-6.00027 c -0.709831,-3.33594 -1.298204,-6.10332 -1.307496,-6.14973 l -0.0169,-0.0844 h 1.595142 1.595142 l 0.0208,0.10312 c 0.01144,0.0567 0.257704,1.71469 0.54725,3.68438 0.289546,1.96969 0.534121,3.60234 0.5435,3.62812 0.0201,0.0553 0.117858,0.0625 0.14965,0.011 0.01219,-0.0197 0.401945,-1.63551 0.866115,-3.59063 0.46417,-1.95511 0.86084,-3.61803 0.881489,-3.69538 l 0.03754,-0.14062 h 1.16034 1.16034 l 0.02698,0.10312 c 0.01484,0.0567 0.408636,1.68938 0.875106,3.62813 0.77586,3.22464 0.85481,3.52598 0.92653,3.53653 0.0597,0.009 0.0838,-0.0136 0.10094,-0.0937 0.0124,-0.0579 0.25871,-1.6409 0.54735,-3.51778 0.28864,-1.87687 0.53505,-3.46734 0.54758,-3.53437 l 0.0228,-0.12188 h 1.58958 c 0.87426,0 1.58957,0.0104 1.58957,0.0232 0,0.0128 -0.57409,2.72927 -1.27577,6.03668 -0.70168,3.30741 -1.28597,6.06446 -1.29844,6.12679 l -0.0227,0.11331 -1.42969,-8e-5 -1.42969,-7e-5 -0.918741,-3.66034 c -0.574353,-2.28826 -0.937411,-3.66774 -0.968533,-3.68007 -0.02738,-0.0109 -0.07114,0.004 -0.09723,0.0323 -0.0261,0.0286 -0.458128,1.68466 -0.960065,3.68013 l -0.912614,3.62815 -1.427652,-2.7e-4 -1.427652,-2.7e-4 z m 18.768908,5.96322 c -0.0119,-0.057 -0.59546,-2.80167 -1.29683,-6.09934 -0.70137,-3.29768 -1.27523,-6.01877 -1.27523,-6.04688 0,-0.0423 0.27344,-0.0511 1.59375,-0.0511 1.24957,0 1.59393,0.0101 1.59457,0.0469 0.003,0.18806 1.08902,7.35796 1.11874,7.38768 0.0208,0.0208 0.0601,0.0293 0.0873,0.0188 0.0313,-0.0121 0.37206,-1.38006 0.93064,-3.73616 l 0.88125,-3.71709 1.17188,-7e-5 c 0.64453,-4e-5 1.17187,0.007 1.17187,0.016 0,0.045 1.72814,7.19616 1.746,7.22506 0.0334,0.054 0.12932,0.0392 0.15346,-0.0237 0.0122,-0.0317 0.27013,-1.66433 0.57328,-3.62812 l 0.55117,-3.57053 1.60055,-0.01 c 0.8803,-0.005 1.59979,-0.005 1.59888,0 -9e-4,0.005 -0.58769,2.76884 -1.30393,6.14103 l -1.30226,6.13125 -1.43357,0.01 c -0.78847,0.005 -1.43358,0.002 -1.43358,-0.007 0,-0.0523 -1.80624,-7.17957 -1.83786,-7.25208 -0.11035,-0.25303 -0.13111,-0.18439 -1.08638,3.59329 l -0.92458,3.65625 -1.42876,0.01 -1.42876,0.01 -0.0216,-0.10357 z"
         id="path25"
         inkscape:connector-curvature="0" />
    </g>
  </g>
</svg>
